<svg xmlns="http://www.w3.org/2000/svg" width="45.1" height="45.1" viewBox="0 0 45.1 45.1">
  <g id="svg-external" transform="translate(-27.7 -27.5)">
    <path id="Path_12" data-name="Path 12" d="M70.2,30a8.225,8.225,0,0,0-6-2.5h-28A8.536,8.536,0,0,0,27.7,36V64.1a8.536,8.536,0,0,0,8.5,8.5H64.3a8.536,8.536,0,0,0,8.5-8.5V36A8.671,8.671,0,0,0,70.2,30Zm-5,21a1.751,1.751,0,0,1-1.1,1.7,1.952,1.952,0,0,1-.7.1,1.612,1.612,0,0,1-1.3-.6L57.9,48,42.3,63.6a1.708,1.708,0,0,1-2.6,0l-3-3a1.708,1.708,0,0,1,0-2.6L52.2,42.5,48,38.3a1.677,1.677,0,0,1-.4-2,1.626,1.626,0,0,1,1.7-1.1h14a2.071,2.071,0,0,1,1.9,1.9Z" fill="rgba(255,255,255,0.3)"/>
  </g>
</svg>
