<?xml version="1.0" standalone="no"?>
<!DOCTYPE svg PUBLIC "-//W3C//DTD SVG 20010904//EN"
 "http://www.w3.org/TR/2001/REC-SVG-20010904/DTD/svg10.dtd">
<svg version="1.0" xmlns="http://www.w3.org/2000/svg"
 width="1600.000000pt" height="1600.000000pt" viewBox="0 0 1600.000000 1600.000000"
 preserveAspectRatio="xMidYMid meet">
<metadata>
Created by potrace 1.11, written by Peter Selinger 2001-2013
</metadata>
<g transform="translate(0.000000,1600.000000) scale(0.100000,-0.100000)"
fill="#000000" stroke="none">
<path d="M0 10959 l0 -881 30 4 c16 3 30 1 30 -3 0 -4 13 -4 30 1 17 5 30 5
30 0 0 -5 13 -5 30 0 17 5 30 5 30 0 0 -5 13 -5 28 0 16 4 36 4 45 -1 10 -6
18 -5 22 1 4 6 13 7 23 1 25 -13 25 -13 55 -2 15 6 27 7 27 1 0 -5 12 -5 30 0
17 5 30 5 30 1 0 -4 23 -5 50 -1 28 4 50 3 50 -1 0 -4 14 -4 30 1 17 5 30 6
30 2 0 -4 16 -7 35 -7 19 0 35 3 35 7 0 4 13 3 30 -2 17 -5 30 -5 30 0 0 5 6
7 14 4 20 -8 106 -10 106 -3 0 4 14 4 32 0 18 -4 56 -4 85 -1 29 3 53 3 53 -1
0 -4 14 -4 30 1 17 5 30 5 30 0 0 -5 13 -5 30 0 17 5 30 5 30 0 0 -5 13 -5 29
0 15 4 34 4 42 -1 7 -4 18 -4 24 1 6 5 17 5 24 1 7 -5 28 -5 47 -1 19 4 34 4
34 0 0 -5 14 -5 30 0 17 5 30 5 30 0 0 -5 13 -5 30 0 17 5 30 5 30 0 0 -5 13
-5 28 0 16 4 36 4 45 -1 10 -6 18 -5 22 1 4 7 14 6 28 -2 12 -6 22 -11 22 -10
0 0 12 5 28 11 15 6 27 7 27 1 0 -5 12 -5 30 0 16 5 30 5 30 1 0 -4 22 -5 50
-1 27 4 50 3 50 -1 0 -4 13 -4 30 1 16 5 30 6 30 2 0 -4 16 -7 35 -7 19 0 35
3 35 7 0 4 13 3 30 -2 17 -5 30 -5 30 0 0 5 6 7 14 4 20 -8 106 -10 106 -3 0
4 14 4 32 0 18 -4 56 -4 85 -1 29 3 53 3 53 -1 0 -4 13 -4 30 1 17 5 30 5 30
0 0 -5 13 -5 30 0 17 5 30 5 30 0 0 -5 13 -5 29 0 15 4 34 4 42 -1 7 -4 18 -4
24 1 6 5 17 5 24 1 7 -5 28 -5 47 -1 19 4 34 4 34 0 0 -5 14 -5 30 0 17 5 30
5 30 0 0 -5 13 -5 30 0 17 5 30 5 30 0 0 -5 13 -5 28 0 16 4 36 4 45 -1 10 -6
18 -5 22 1 4 6 13 7 23 1 25 -13 25 -13 55 -2 15 6 27 7 27 1 0 -5 12 -5 30 0
17 5 30 5 30 1 0 -4 23 -5 50 -1 28 4 50 3 50 -1 0 -4 14 -4 30 1 17 5 30 6
30 2 0 -4 16 -7 35 -7 19 0 35 3 35 7 0 4 13 3 30 -2 17 -5 30 -5 30 0 0 5 6
7 14 4 20 -8 106 -10 106 -3 0 4 14 4 32 0 18 -4 56 -4 85 -1 29 3 53 3 53 -1
0 -4 14 -4 30 1 17 5 30 5 30 0 0 -5 13 -5 30 0 17 5 30 5 30 0 0 -5 13 -5 29
0 15 4 34 4 42 -1 7 -4 18 -4 24 1 6 5 17 5 24 1 7 -5 28 -5 47 -1 19 4 34 4
34 0 0 -5 14 -5 30 0 17 5 30 5 30 0 0 -5 13 -5 30 0 17 5 30 5 30 0 0 -5 13
-5 28 0 16 4 36 4 45 -1 10 -6 18 -5 22 1 4 6 13 7 23 1 25 -13 25 -13 55 -2
15 6 27 7 27 1 0 -5 12 -5 30 0 17 5 30 5 30 1 0 -4 23 -5 50 -1 28 4 50 3 50
-1 0 -4 14 -4 30 1 17 5 30 6 30 2 0 -4 16 -7 35 -7 19 0 35 3 35 7 0 4 14 3
30 -2 17 -5 30 -5 30 0 0 5 6 7 14 4 20 -8 106 -10 106 -3 0 4 14 4 32 0 18
-4 56 -4 85 -1 29 3 53 3 53 -1 0 -4 14 -4 30 1 17 5 30 5 30 0 0 -5 13 -5 30
0 17 5 30 5 30 0 0 -5 13 -5 29 0 15 4 34 4 42 -1 7 -4 18 -4 24 1 6 5 17 5
25 0 7 -4 23 -4 36 0 12 5 24 6 27 3 7 -7 77 -10 77 -3 0 3 18 5 40 5 22 0 40
-3 40 -7 0 -4 14 -3 30 2 19 5 30 5 30 -1 0 -6 4 -8 8 -5 10 6 83 8 135 4 20
-2 37 -1 37 2 0 3 18 5 40 5 22 0 40 -3 40 -7 0 -4 14 -3 30 2 17 5 30 5 30 1
0 -4 27 -4 60 -1 33 3 60 3 60 -1 0 -4 13 -4 30 1 17 5 30 5 30 0 0 -5 13 -5
30 0 17 5 30 5 30 0 0 -5 13 -5 28 0 16 4 36 4 45 -1 10 -6 18 -5 22 1 4 6 13
7 23 1 25 -13 25 -13 55 -2 15 6 27 7 27 1 0 -5 12 -5 30 0 16 5 30 5 30 1 0
-4 23 -5 50 -1 28 4 50 3 50 -1 0 -4 13 -4 30 1 16 5 30 6 30 2 0 -4 16 -7 35
-7 19 0 35 3 35 7 0 4 14 3 30 -2 17 -5 30 -5 30 0 0 5 6 7 14 4 20 -8 106
-10 106 -3 0 4 14 4 32 0 18 -4 56 -4 85 -1 29 3 53 3 53 -1 0 -4 13 -4 30 1
17 5 30 5 30 0 0 -5 13 -5 30 0 17 5 30 5 30 0 0 -5 13 -5 29 0 15 4 34 4 42
-1 7 -4 18 -4 24 1 6 5 17 5 25 0 7 -4 23 -4 36 0 12 5 24 6 27 3 7 -7 77 -10
77 -3 0 3 18 5 40 5 22 0 40 -3 40 -7 0 -4 14 -3 30 2 19 5 30 5 30 -1 0 -6 4
-8 8 -5 10 6 83 8 135 4 20 -2 37 -1 37 2 0 3 18 5 40 5 22 0 40 -3 40 -7 0
-4 13 -3 30 2 16 5 30 6 30 2 0 -8 83 -7 105 2 8 3 15 1 15 -4 0 -5 13 -5 30
0 16 5 30 5 30 1 0 -4 23 -5 50 -1 28 4 50 3 50 -1 0 -4 14 -4 30 1 16 5 30 6
30 2 0 -4 16 -7 35 -7 19 0 35 3 35 7 0 4 13 3 30 -2 17 -5 30 -5 30 0 0 5 6
7 14 4 23 -9 106 -10 106 -1 0 5 4 6 10 2 13 -8 118 -10 126 -2 4 3 14 2 23
-3 10 -5 23 -5 31 0 8 5 21 5 31 0 9 -5 19 -7 22 -4 8 9 87 10 87 2 0 -4 14
-3 30 2 16 5 30 6 30 2 0 -4 16 -7 35 -7 19 0 35 3 35 7 0 4 14 3 30 -2 17 -5
30 -5 30 0 0 5 6 7 14 4 23 -9 106 -10 106 -1 0 5 5 5 11 2 6 -4 36 -6 67 -5
67 2 66 2 115 -2 20 -2 37 -1 37 2 0 3 18 5 40 5 22 0 40 -3 40 -7 0 -4 14 -3
30 2 19 5 30 5 30 -1 0 -6 4 -8 8 -5 10 6 83 8 135 4 20 -2 37 -1 37 2 0 3 18
5 40 5 22 0 40 -3 40 -7 0 -4 14 -3 30 2 16 5 30 5 30 1 0 -4 27 -4 60 -1 33
3 60 3 60 -1 0 -4 14 -4 30 1 17 5 30 5 30 0 0 -5 13 -5 30 0 17 5 30 5 30 0
0 -5 13 -5 28 0 16 4 36 4 45 -1 10 -6 18 -5 22 1 4 7 14 6 28 -2 12 -6 22
-11 22 -10 0 0 12 5 28 11 15 6 27 7 27 1 0 -5 12 -5 30 0 17 5 30 5 30 1 0
-4 23 -5 50 -1 27 4 50 3 50 -1 0 -4 14 -4 30 1 16 5 30 6 30 2 0 -4 16 -7 35
-7 19 0 35 3 35 7 0 4 13 3 30 -2 17 -5 30 -5 30 0 0 5 6 7 14 4 20 -8 106
-10 106 -3 0 4 14 4 32 0 18 -4 56 -4 85 -1 29 3 53 3 53 -1 0 -4 14 -4 30 1
17 5 30 5 30 0 0 -5 13 -5 30 0 17 5 30 5 30 0 0 -5 13 -5 29 0 15 4 34 4 42
-1 7 -4 18 -4 24 1 6 5 17 5 25 0 7 -4 23 -4 36 0 12 5 24 6 27 3 7 -7 77 -10
77 -3 0 3 18 5 40 5 22 0 40 -3 40 -7 0 -4 13 -3 30 2 19 5 30 5 30 -1 0 -6 4
-8 8 -5 10 6 83 8 135 4 20 -2 37 -1 37 2 0 3 18 5 40 5 22 0 40 -3 40 -7 0
-4 14 -3 30 2 17 5 30 6 30 2 0 -8 83 -7 105 2 8 3 15 1 15 -4 0 -5 13 -5 30
0 16 5 30 5 30 1 0 -4 23 -5 50 -1 28 4 50 3 50 -1 0 -4 14 -4 30 1 16 5 30 6
30 2 0 -4 16 -7 35 -7 19 0 35 3 35 7 0 4 14 3 30 -2 17 -5 30 -5 30 0 0 5 6
7 14 4 23 -9 106 -10 106 -1 0 5 4 6 10 2 13 -8 118 -10 126 -2 4 3 14 2 23
-3 10 -5 23 -5 31 0 8 5 21 5 31 0 9 -5 19 -7 22 -4 8 9 87 10 87 2 0 -4 13
-3 30 2 16 5 30 6 30 2 0 -4 16 -7 35 -7 19 0 35 3 35 7 0 4 14 3 30 -2 17 -5
30 -5 30 0 0 5 6 7 14 4 23 -9 106 -10 106 -1 0 5 5 5 11 2 6 -4 36 -6 67 -5
67 2 66 2 115 -2 20 -2 37 -1 37 2 0 3 18 5 40 5 22 0 40 -3 40 -7 0 -4 13 -3
30 2 19 5 30 5 30 -1 0 -6 4 -8 8 -5 10 6 83 8 135 4 20 -2 37 -1 37 2 0 3 18
5 40 5 22 0 40 -3 40 -7 0 -4 14 -3 30 2 17 5 30 5 30 1 0 -4 27 -4 60 -1 33
3 60 3 60 -1 0 -4 13 -4 30 1 17 5 30 5 30 0 0 -5 13 -5 30 0 17 5 30 5 30 0
0 -5 13 -5 28 0 16 4 36 4 45 -1 10 -6 18 -5 22 1 4 6 13 7 23 1 25 -13 25
-13 55 -2 15 6 27 7 27 1 0 -5 12 -5 30 0 17 5 30 5 30 1 0 -4 23 -5 50 -1 28
4 50 3 50 -1 0 -4 14 -4 30 1 16 5 30 6 30 2 0 -4 16 -7 35 -7 19 0 35 3 35 7
0 4 13 3 30 -2 17 -5 30 -5 30 0 0 5 6 7 14 4 20 -8 106 -10 106 -3 0 4 14 4
32 0 18 -4 56 -4 85 -1 29 3 53 3 53 -1 0 -4 14 -4 30 1 17 5 30 5 30 0 0 -5
13 -5 30 0 17 5 30 5 30 0 0 -5 13 -5 29 0 15 4 34 4 42 -1 7 -4 18 -4 24 1 6
5 17 5 25 0 7 -4 23 -4 36 0 12 5 24 6 27 3 7 -7 77 -10 77 -3 0 3 18 5 40 5
22 0 40 -3 40 -7 0 -4 13 -3 30 2 19 5 30 5 30 -1 0 -6 4 -8 8 -5 10 6 83 8
135 4 20 -2 37 -1 37 2 0 3 18 5 40 5 22 0 40 -3 40 -7 0 -4 13 -3 30 2 16 5
30 5 30 1 0 -4 27 -4 60 -1 33 3 60 3 60 -1 0 -4 13 -4 30 1 17 5 30 5 30 0 0
-5 13 -5 30 0 17 5 30 5 30 0 0 -5 13 -5 28 0 16 4 36 4 45 -1 10 -6 18 -5 22
1 4 7 14 6 28 -2 12 -6 24 -10 27 -8 21 12 50 18 50 10 0 -5 12 -5 30 0 16 5
30 5 30 1 0 -4 23 -5 50 -1 28 4 50 3 50 -1 0 -4 13 -4 30 1 16 5 30 5 30 0 0
-4 9 -6 20 -3 20 5 20 14 20 884 l0 879 -8000 0 -8000 0 0 -881z"/>
<path d="M2117 9363 c-2 -2 -28 -6 -58 -8 -30 -3 -65 -7 -79 -10 -14 -3 -41
-8 -60 -11 -82 -13 -305 -87 -316 -106 -3 -4 -14 -8 -25 -8 -10 0 -19 -4 -19
-10 0 -5 -6 -10 -12 -10 -7 0 -57 -30 -111 -66 -89 -61 -260 -218 -297 -274
-8 -12 -19 -28 -25 -34 -5 -6 -23 -31 -40 -56 -16 -25 -32 -47 -35 -50 -34
-34 -204 -399 -213 -458 -1 -9 -6 -22 -9 -28 -6 -9 -123 -437 -133 -484 -2 -8
-9 -28 -15 -45 -6 -16 -14 -39 -16 -50 -12 -64 -17 -81 -26 -92 -6 -7 -8 -13
-5 -13 9 0 -12 -58 -45 -127 -17 -34 -51 -83 -76 -109 -45 -44 -99 -80 -114
-76 -5 1 -8 -2 -8 -6 0 -23 -179 -46 -236 -30 -36 10 -86 44 -130 86 -12 11
-14 -6 -14 -112 0 -69 4 -127 8 -130 9 -5 32 -10 112 -21 76 -12 252 -13 315
-3 53 8 122 27 165 45 8 3 17 7 20 8 20 5 108 52 118 62 7 7 18 13 24 13 5 0
23 10 38 23 15 12 43 33 62 46 56 41 202 194 243 257 80 120 132 247 187 454
11 41 23 79 28 84 10 10 456 15 472 5 6 -4 3 -28 -8 -65 -10 -32 -19 -63 -20
-69 -2 -5 -10 -35 -19 -65 -9 -30 -18 -66 -21 -79 -3 -13 -10 -34 -16 -45 -6
-12 -10 -21 -9 -21 2 0 -2 -20 -9 -45 -45 -166 -56 -283 -37 -367 14 -58 70
-136 121 -167 39 -24 123 -54 173 -62 65 -11 229 -7 263 6 3 1 13 2 22 1 35
-4 241 59 258 78 3 3 11 7 19 9 8 2 27 12 42 23 15 10 30 19 34 19 3 0 13 6
20 13 7 6 36 30 63 52 27 22 60 54 73 72 25 32 38 35 37 5 -3 -57 61 -178 111
-210 14 -9 28 -20 31 -24 8 -10 87 -38 125 -44 100 -16 268 8 371 53 21 9 41
17 44 18 37 11 170 87 225 129 22 17 66 55 98 85 31 31 57 53 57 51 11 -136
70 -246 161 -302 93 -57 259 -52 417 14 40 17 110 55 155 86 85 57 237 204
263 253 17 33 29 37 32 12 2 -22 10 -58 12 -58 1 0 3 -7 5 -15 8 -45 75 -158
119 -203 58 -59 106 -88 189 -111 177 -51 392 12 557 162 59 53 71 61 76 45
13 -46 51 -111 84 -144 35 -36 116 -77 155 -78 78 -2 98 -2 135 4 81 12 253
85 309 131 9 7 40 32 69 54 28 23 52 46 52 51 0 22 27 6 45 -28 46 -86 160
-171 250 -187 28 -6 45 -9 105 -21 35 -7 240 -7 273 -1 15 3 37 8 50 10 43 9
69 15 90 22 45 13 133 57 165 80 17 14 32 23 32 20 0 -9 40 25 102 89 87 88
140 207 140 310 -1 147 -69 229 -371 443 -45 32 -126 100 -141 118 -68 83 -66
199 3 261 50 45 160 61 230 32 53 -22 57 -30 32 -64 -75 -101 -48 -233 59
-284 95 -46 203 -12 252 79 27 52 29 175 3 238 -42 102 -154 184 -298 218 -56
14 -284 11 -345 -3 -34 -8 -72 -17 -85 -19 -13 -3 -37 -12 -52 -20 -16 -8 -31
-14 -35 -13 -13 3 -128 -76 -159 -109 -65 -71 -75 -86 -107 -151 -27 -58 -31
-77 -32 -151 0 -47 3 -96 7 -110 29 -105 156 -251 312 -361 50 -34 113 -86
141 -115 44 -44 53 -59 58 -100 7 -56 4 -80 -17 -121 -49 -93 -200 -141 -336
-106 -67 18 -102 42 -129 87 l-21 35 37 27 c20 16 43 34 51 42 19 19 49 104
44 127 -2 11 -5 33 -8 48 -17 113 -180 169 -301 104 -35 -18 -71 -71 -78 -114
-2 -16 -5 -30 -6 -33 -1 -3 -1 -15 0 -28 4 -53 -80 -134 -170 -165 -51 -17
-70 -13 -101 19 -35 37 -31 90 18 284 24 96 46 180 47 185 2 6 7 29 11 53 4
23 12 45 16 48 5 3 7 9 4 14 -2 4 2 29 10 56 8 26 12 50 10 52 -2 3 2 17 11
33 8 16 13 29 10 29 -2 0 7 42 21 93 13 50 26 103 29 117 3 14 14 59 24 101
11 42 21 85 23 95 1 10 6 25 11 32 4 7 5 16 1 20 -4 4 -114 7 -246 8 l-239 0
-11 -40 c-6 -23 -11 -43 -11 -46 0 -3 -4 -12 -9 -21 -7 -14 -15 -10 -53 26
-50 49 -81 67 -146 86 -51 15 -246 21 -270 8 -8 -4 -37 -15 -65 -24 -27 -9
-66 -25 -85 -35 -19 -11 -43 -22 -52 -26 -10 -3 -18 -10 -18 -15 0 -5 -7 -9
-15 -9 -14 0 -190 -168 -230 -220 -53 -67 -95 -129 -95 -139 0 -6 -4 -11 -9
-11 -5 0 -13 -10 -17 -22 -3 -13 -15 -35 -26 -50 -11 -16 -16 -28 -11 -28 4 0
3 -4 -2 -8 -6 -4 -37 -59 -69 -122 -180 -352 -327 -535 -428 -535 -21 0 -43 6
-50 13 -21 20 -19 156 3 242 10 41 21 86 24 100 3 14 14 61 26 105 11 44 32
125 45 180 14 55 26 105 28 110 7 25 16 62 20 85 2 14 13 59 24 100 12 41 23
86 25 100 3 14 10 45 17 70 7 25 14 54 16 65 2 11 17 74 34 140 17 66 33 129
35 140 4 17 13 57 21 88 1 4 2 8 3 10 2 1 4 13 7 26 2 13 14 60 25 105 12 45
22 88 24 96 2 8 10 41 18 73 14 52 14 57 -1 58 -84 5 -806 2 -815 -3 -6 -3
-12 -12 -13 -20 -1 -7 -7 -34 -13 -61 -6 -26 -13 -62 -16 -80 l-5 -32 142 1
c79 0 149 -2 156 -4 8 -3 10 -12 6 -24 -3 -11 -8 -28 -9 -37 -2 -9 -4 -16 -5
-16 -1 0 -4 -10 -13 -50 -3 -11 -44 -175 -92 -365 -48 -190 -89 -356 -91 -369
-3 -14 -7 -28 -10 -33 -3 -4 -7 -16 -9 -26 -1 -9 -9 -37 -16 -62 -16 -56 -15
-52 -22 -70 -3 -8 -18 -46 -32 -85 -24 -66 -103 -234 -115 -245 -3 -3 -23 -32
-44 -65 -40 -61 -156 -185 -173 -185 -5 0 -19 -9 -30 -20 -31 -28 -132 -60
-184 -56 -57 3 -87 23 -99 64 -9 34 -7 144 5 196 3 16 13 59 21 95 8 36 17 77
20 91 2 14 7 33 10 42 3 9 7 26 9 37 6 27 11 46 24 101 7 25 14 56 17 70 9 40
10 43 23 90 7 25 15 56 18 70 2 14 11 52 20 85 9 33 16 65 16 72 0 17 48 32
72 23 11 -4 27 -4 36 1 9 5 19 6 22 3 5 -5 92 -8 107 -4 23 6 100 3 100 -5 0
-31 22 23 43 108 l25 97 -175 0 c-111 0 -172 4 -168 10 3 5 8 22 10 37 2 16
15 69 28 118 13 50 24 93 25 98 1 4 2 8 3 10 1 5 8 33 13 55 3 13 8 33 12 45
4 12 8 33 10 47 1 14 6 35 9 46 6 21 4 21 -88 21 l-95 0 -41 -61 c-111 -166
-104 -157 -208 -261 -75 -76 -173 -139 -230 -149 -10 -2 -36 -7 -58 -11 -52
-11 -77 -13 -152 -16 -54 -1 -63 -4 -63 -20 0 -29 -1 -33 -12 -46 -6 -7 -8
-13 -5 -13 3 0 1 -15 -4 -32 -18 -59 -18 -68 -1 -75 15 -7 40 -8 67 -3 6 1 28
1 50 1 22 -1 46 -1 53 -1 6 0 20 0 30 0 9 0 30 0 45 0 27 0 28 -2 24 -32 -3
-18 -8 -43 -11 -54 -2 -12 -7 -37 -10 -56 -3 -20 -10 -48 -16 -64 -6 -16 -11
-31 -11 -34 2 -16 -13 -71 -20 -76 -5 -3 -7 -10 -3 -15 3 -5 2 -15 -3 -22 -5
-7 -15 -30 -22 -52 -18 -58 -71 -183 -98 -232 -13 -24 -21 -43 -18 -43 3 0 -3
-10 -15 -22 -11 -12 -20 -26 -20 -31 0 -8 -64 -103 -105 -155 -35 -46 -142
-142 -188 -170 -74 -45 -171 -49 -217 -11 -22 19 -25 29 -26 96 -1 42 4 97 11
124 7 27 11 49 8 49 -3 0 0 7 7 15 7 8 10 15 7 15 -3 0 2 21 10 48 8 26 17 61
20 77 3 17 8 37 13 45 4 8 13 40 21 70 23 94 29 117 46 171 8 25 16 52 17 60
1 8 8 34 15 59 8 25 14 50 15 55 2 6 8 30 15 55 8 25 15 52 16 60 2 8 4 15 5
15 1 0 3 7 5 15 2 8 13 49 25 90 11 41 22 82 24 90 2 8 11 38 20 65 9 28 18
59 19 70 2 11 7 27 10 35 3 8 9 29 13 45 4 17 8 32 9 35 11 36 28 99 30 112 2
10 6 22 9 26 3 5 8 22 11 38 10 46 10 48 17 59 3 6 9 28 13 50 4 22 11 45 15
50 9 10 10 16 10 39 0 12 28 14 159 13 l160 -2 22 75 c13 41 23 77 24 80 0 3
4 10 8 17 4 6 3 14 -2 17 -10 6 -888 5 -894 -1z m-43 -363 c-54 -196 -104
-379 -110 -400 -28 -109 -101 -360 -106 -366 -9 -9 -478 -11 -484 -2 -5 8 54
189 103 311 82 208 170 357 272 457 51 51 123 110 134 110 2 0 26 10 53 22 27
12 56 23 64 25 76 15 106 18 112 13 4 -3 -13 -80 -38 -170z m3730 -604 c46 -3
98 -66 111 -136 9 -47 10 -186 2 -232 -4 -21 -10 -55 -13 -75 -3 -21 -8 -41
-10 -44 -2 -3 -6 -20 -9 -37 -10 -57 -76 -247 -112 -318 -94 -191 -259 -276
-344 -178 -86 100 -62 450 52 736 70 178 131 247 254 286 17 5 34 7 39 4 5 -3
19 -6 30 -6z"/>
<path d="M9470 9363 c-52 -9 -166 -46 -227 -74 -35 -16 -65 -28 -66 -26 -2 1
-11 -5 -19 -13 -9 -8 -39 -28 -67 -45 -28 -16 -51 -33 -51 -37 0 -5 -7 -8 -15
-8 -8 0 -15 -4 -15 -10 0 -5 -4 -10 -10 -10 -9 0 -19 -8 -131 -116 -172 -164
-334 -423 -403 -644 -10 -30 -20 -62 -23 -70 -8 -18 -7 -16 -21 -65 -6 -22
-13 -51 -16 -65 -3 -14 -9 -48 -15 -77 -27 -138 -32 -330 -11 -443 53 -287
218 -505 445 -587 39 -14 47 -16 110 -29 70 -15 203 -10 280 10 203 53 434
211 556 382 l33 45 13 -57 c22 -94 78 -200 140 -260 49 -49 147 -107 180 -107
7 0 13 -3 13 -6 0 -9 62 -14 170 -14 95 0 208 22 292 58 21 8 40 15 43 15 12
0 180 93 183 101 2 5 9 9 16 9 13 0 209 145 276 205 62 54 299 294 333 336 25
32 27 32 23 9 -3 -14 -5 -25 -6 -25 -2 0 -5 -11 -13 -50 -3 -11 -26 -103 -52
-205 -26 -102 -49 -192 -50 -200 -2 -8 -4 -15 -5 -15 -1 0 -3 -7 -5 -15 -1 -8
-13 -53 -25 -100 -12 -47 -23 -93 -25 -103 -2 -9 -6 -20 -8 -25 -3 -4 -8 -24
-11 -46 -4 -21 -9 -43 -13 -49 -4 -7 -8 -18 -9 -27 0 -8 -22 -95 -48 -193 -25
-98 -46 -185 -46 -195 0 -16 20 -17 241 -16 163 1 244 5 252 13 6 6 8 11 4 11
-3 0 0 18 8 40 8 22 12 40 10 40 -2 0 5 30 15 68 10 37 21 81 24 97 6 34 29
123 45 173 5 18 10 35 9 37 0 3 10 46 22 96 l23 91 24 -26 c59 -64 160 -106
268 -111 92 -5 231 30 309 77 16 9 33 15 38 12 4 -3 8 0 8 5 0 6 5 11 10 11
11 0 50 24 149 89 29 20 60 41 69 46 8 6 23 17 33 25 10 8 32 26 50 40 110 84
291 256 402 380 51 57 51 58 32 -30 -11 -49 -4 -254 8 -267 4 -3 7 -15 7 -26
0 -46 71 -169 135 -232 94 -92 199 -134 330 -130 39 2 70 4 70 4 0 1 16 4 35
6 84 9 231 60 313 109 29 18 61 36 70 39 10 4 17 11 17 17 0 5 5 10 11 10 28
0 210 167 292 268 28 34 54 62 58 62 3 0 6 -12 6 -27 -1 -67 29 -176 64 -233
5 -8 13 -24 18 -35 26 -55 187 -185 231 -185 9 0 20 -4 25 -9 33 -31 268 -31
375 -1 41 11 80 22 85 23 45 11 188 91 253 142 37 28 154 151 169 176 10 16
21 29 25 29 4 0 8 6 8 14 0 8 3 16 8 18 13 5 78 139 102 208 12 36 25 72 28
80 3 8 5 18 4 21 -1 4 3 22 9 40 17 57 23 118 23 249 0 134 -12 192 -61 296
-27 57 -128 174 -151 174 -6 0 -12 5 -12 10 0 6 -6 10 -14 10 -8 0 -16 3 -18
8 -3 8 -90 41 -128 49 -86 16 -230 6 -316 -23 -89 -30 -213 -95 -222 -116 -2
-5 -9 -8 -15 -8 -6 0 -20 -9 -32 -19 -85 -81 -186 -184 -218 -221 -42 -50 -41
-50 -82 -105 -17 -22 -33 -41 -37 -43 -5 -2 -8 -9 -8 -14 0 -6 -7 -18 -15 -27
-9 -9 -62 -79 -118 -156 -277 -377 -468 -556 -611 -569 -50 -5 -102 10 -119
34 -8 11 -16 17 -19 14 -3 -3 -15 23 -27 57 -17 52 -20 80 -17 178 2 64 6 130
10 146 3 17 13 64 22 105 26 123 62 229 114 335 84 172 169 255 265 259 46 2
96 -17 119 -45 33 -39 33 -45 -1 -44 -16 0 -37 -4 -48 -10 -77 -40 -104 -80
-111 -160 -10 -123 66 -208 187 -208 77 0 135 31 178 93 32 47 61 145 55 186
-2 10 -4 36 -6 57 -1 21 -6 41 -10 43 -4 3 -8 13 -8 22 0 57 -90 161 -174 202
-83 40 -132 49 -250 45 -106 -3 -186 -25 -301 -82 -51 -26 -192 -121 -224
-151 -10 -9 -44 -42 -77 -73 -59 -57 -106 -106 -178 -189 -22 -25 -92 -101
-157 -170 -64 -69 -129 -138 -143 -153 -14 -15 -26 -25 -26 -22 0 3 -14 -9
-31 -27 -17 -19 -26 -25 -21 -13 6 11 12 34 15 50 3 17 11 55 17 85 15 75 20
232 9 305 -13 89 -14 94 -22 101 -4 4 -7 14 -7 22 0 39 -67 149 -125 206 -82
81 -155 110 -269 110 -92 0 -157 -9 -186 -24 -11 -6 -20 -8 -20 -5 0 10 -134
-62 -165 -89 -16 -14 -31 -24 -33 -22 -2 2 4 28 12 57 9 29 16 54 16 56 0 2
-155 3 -345 3 -299 0 -345 -2 -346 -15 -3 -28 -4 -33 -11 -41 -5 -4 -8 -18 -8
-31 0 -14 -5 -33 -11 -45 -6 -11 -8 -23 -4 -26 3 -3 44 -7 90 -7 47 -1 87 -4
90 -7 16 -16 -81 -214 -163 -333 -76 -111 -136 -186 -224 -278 -52 -53 -52
-53 -38 11 27 115 29 273 5 380 -10 46 -14 58 -28 97 -51 142 -153 251 -277
296 -91 33 -269 32 -359 -2 -14 -6 -28 -11 -31 -11 -20 -2 -155 -65 -215 -101
-88 -51 -227 -190 -325 -322 -39 -51 -70 -96 -70 -98 0 -3 -16 -29 -35 -58
-19 -30 -35 -59 -35 -66 0 -7 -4 -13 -9 -13 -5 0 -11 -8 -15 -17 -3 -10 -10
-25 -15 -33 -6 -8 -35 -56 -65 -107 -155 -260 -261 -373 -404 -427 -54 -20
-127 -25 -177 -13 -11 3 -25 6 -32 6 -21 2 -90 75 -113 121 -42 82 -52 138
-53 300 -1 133 6 216 29 320 20 90 22 99 29 120 3 10 8 28 10 39 6 35 65 203
86 248 10 24 19 45 19 49 0 3 23 51 51 107 100 203 231 370 344 442 123 79
235 76 298 -7 63 -84 91 -204 91 -398 0 -63 4 -118 8 -121 6 -4 163 -4 189 0
4 1 9 15 12 31 7 34 15 65 17 65 1 0 3 9 5 20 3 11 20 76 40 145 20 69 38 133
40 143 3 9 7 25 10 35 2 9 18 67 35 127 17 61 32 118 35 128 2 10 7 27 10 38
4 12 2 19 -7 20 -21 1 -152 1 -165 0 -7 -1 -31 -26 -54 -56 l-42 -56 -31 28
c-35 32 -79 63 -116 80 -47 23 -105 45 -127 49 -13 2 -35 7 -50 10 -36 7 -220
12 -253 7z m1326 -968 c40 -31 74 -115 79 -199 2 -34 4 -65 5 -71 1 -5 2 -12
1 -15 -1 -3 -3 -36 -5 -75 -3 -64 -29 -230 -36 -230 -1 0 -3 -7 -5 -15 -33
-163 -138 -375 -229 -462 -80 -78 -125 -100 -196 -97 -77 4 -118 43 -137 129
-10 45 -1 199 17 284 6 28 12 60 14 71 15 73 83 302 110 367 8 18 15 36 15 41
1 9 53 110 61 117 3 3 11 17 19 32 22 42 92 109 136 129 57 27 111 24 151 -6z
m4755 15 c15 -7 38 -28 52 -48 38 -59 51 -123 51 -257 0 -124 -9 -184 -45
-320 -27 -104 -25 -97 -34 -120 -65 -162 -61 -153 -85 -190 -11 -16 -23 -37
-27 -45 -25 -56 -121 -150 -180 -177 -107 -49 -197 -17 -224 78 -15 55 -15
196 0 271 7 32 14 70 16 85 2 16 4 28 5 28 1 0 3 7 5 15 4 16 12 48 20 80 3
11 8 30 11 43 7 28 10 39 16 57 3 8 18 53 33 100 63 193 163 348 254 393 35
17 98 21 132 7z m-3143 -55 c33 -17 66 -75 78 -135 7 -38 7 -166 0 -215 -2
-16 -7 -52 -11 -80 -4 -27 -9 -53 -11 -57 -3 -4 -7 -26 -10 -50 -12 -84 -85
-290 -134 -373 -77 -135 -151 -190 -251 -190 -64 1 -105 23 -152 84 -24 30
-28 42 -23 76 7 45 13 79 16 83 3 2 2 1 15 57 5 22 9 42 10 45 1 3 5 23 10 45
13 56 12 55 15 58 2 2 2 6 15 62 9 42 13 60 15 63 3 3 4 6 14 57 9 47 47 163
71 219 37 87 144 226 174 226 6 0 11 4 11 9 0 10 56 29 91 30 14 1 40 -6 57
-14z"/>
<path d="M0 5043 l0 -883 8000 0 8000 0 0 881 c0 752 -2 880 -14 876 -8 -3
-17 -3 -20 0 -7 7 -241 7 -272 0 -11 -3 -26 -2 -33 3 -7 4 -28 4 -47 0 -19 -4
-34 -5 -34 -1 0 8 -65 6 -79 -3 -5 -4 -12 -2 -15 3 -4 6 -18 6 -36 1 -17 -5
-30 -6 -30 -2 0 4 -44 6 -97 4 -128 -4 -132 -4 -175 0 -21 2 -38 0 -38 -4 0
-4 -10 -4 -22 1 -13 4 -35 5 -50 1 -14 -5 -29 -6 -32 -2 -7 6 -242 6 -272 -1
-11 -3 -26 -2 -33 3 -7 4 -28 4 -47 0 -19 -4 -34 -5 -34 -1 0 8 -65 6 -79 -3
-5 -4 -12 -2 -15 3 -4 6 -18 6 -36 1 -17 -5 -30 -6 -30 -2 0 4 -44 6 -97 4
-128 -4 -132 -4 -175 0 -21 2 -38 0 -38 -4 0 -4 -10 -4 -22 1 -13 4 -35 5 -50
1 -14 -5 -29 -6 -32 -2 -7 6 -242 6 -272 -1 -11 -3 -26 -2 -33 3 -7 4 -28 4
-47 0 -19 -4 -34 -5 -34 -1 0 8 -65 6 -79 -3 -5 -4 -12 -2 -15 3 -4 6 -18 6
-36 1 -17 -5 -30 -6 -30 -2 0 4 -44 6 -97 4 -128 -4 -132 -4 -175 0 -21 2 -38
0 -38 -4 0 -4 -10 -4 -22 1 -13 4 -35 5 -50 1 -14 -5 -29 -6 -32 -2 -7 6 -242
6 -272 -1 -11 -3 -26 -2 -33 3 -7 4 -28 4 -47 0 -19 -4 -34 -5 -34 -1 0 8 -65
6 -79 -3 -5 -4 -12 -2 -15 3 -4 6 -18 6 -36 1 -17 -5 -30 -6 -30 -2 0 4 -44 6
-97 4 -128 -4 -132 -4 -175 0 -21 2 -38 0 -38 -4 0 -4 -10 -4 -22 1 -13 4 -35
5 -50 1 -14 -5 -29 -6 -32 -2 -7 6 -242 6 -272 -1 -11 -3 -26 -2 -33 3 -7 4
-28 4 -47 0 -19 -4 -34 -5 -34 -1 0 8 -65 6 -79 -3 -5 -4 -12 -2 -15 3 -4 6
-18 6 -36 1 -17 -5 -30 -6 -30 -2 0 4 -44 6 -97 4 -128 -4 -132 -4 -175 0 -21
2 -38 0 -38 -4 0 -4 -10 -4 -22 1 -13 4 -35 5 -50 1 -14 -5 -29 -6 -32 -2 -7
6 -242 6 -272 -1 -11 -3 -26 -2 -33 3 -7 4 -28 4 -47 0 -19 -4 -34 -5 -34 -1
0 8 -65 6 -79 -3 -5 -4 -12 -2 -15 3 -4 6 -18 6 -36 1 -17 -5 -30 -6 -30 -2 0
4 -44 6 -97 4 -128 -4 -132 -4 -175 0 -21 2 -38 0 -38 -4 0 -4 -10 -4 -22 1
-13 4 -35 5 -50 1 -14 -5 -29 -6 -32 -2 -7 6 -242 6 -272 -1 -11 -3 -26 -2
-33 3 -7 4 -28 4 -47 0 -19 -4 -34 -5 -34 -1 0 8 -65 6 -79 -3 -5 -4 -12 -2
-15 3 -4 6 -18 6 -36 1 -17 -5 -30 -6 -30 -2 0 4 -44 6 -97 4 -128 -4 -132 -4
-175 0 -21 2 -38 0 -38 -4 0 -4 -10 -4 -22 1 -13 4 -35 5 -50 1 -14 -5 -29 -6
-32 -2 -7 6 -242 6 -272 -1 -11 -3 -26 -2 -33 3 -7 4 -28 4 -47 0 -19 -4 -34
-5 -34 -1 0 8 -65 6 -79 -3 -5 -4 -12 -2 -15 3 -4 6 -18 6 -36 1 -17 -5 -30
-6 -30 -2 0 4 -44 6 -97 4 -128 -4 -132 -4 -175 0 -21 2 -38 0 -38 -4 0 -4
-10 -4 -22 1 -13 4 -35 5 -50 1 -14 -5 -29 -6 -32 -2 -7 6 -242 6 -272 -1 -11
-3 -26 -2 -33 3 -7 4 -28 4 -47 0 -19 -4 -34 -5 -34 -1 0 8 -65 6 -79 -3 -5
-4 -12 -2 -15 3 -4 6 -18 6 -36 1 -17 -5 -30 -6 -30 -2 0 4 -44 6 -97 4 -128
-4 -132 -4 -175 0 -21 2 -38 0 -38 -4 0 -4 -10 -4 -22 1 -13 4 -35 5 -50 1
-14 -5 -29 -6 -32 -2 -7 6 -242 6 -272 -1 -11 -3 -26 -2 -33 3 -7 4 -28 4 -47
0 -19 -4 -34 -5 -34 -1 0 8 -65 6 -79 -3 -5 -4 -12 -2 -15 3 -4 6 -18 6 -36 1
-17 -5 -30 -6 -30 -2 0 4 -44 6 -97 4 -128 -4 -132 -4 -175 0 -21 2 -38 0 -38
-4 0 -4 -10 -4 -22 1 -13 4 -35 5 -50 1 -14 -5 -29 -6 -32 -2 -7 6 -242 6
-272 -1 -11 -3 -26 -2 -33 3 -7 4 -28 4 -47 0 -19 -4 -34 -5 -34 -1 0 8 -65 6
-79 -3 -5 -4 -12 -2 -15 3 -4 6 -18 6 -36 1 -17 -5 -30 -6 -30 -2 0 4 -44 6
-97 4 -128 -4 -132 -4 -175 0 -21 2 -38 0 -38 -4 0 -4 -10 -4 -22 1 -13 4 -35
5 -50 1 -14 -5 -29 -6 -32 -2 -7 6 -242 6 -272 -1 -11 -3 -26 -2 -33 3 -7 4
-28 4 -47 0 -19 -4 -34 -5 -34 -1 0 8 -65 6 -79 -3 -5 -4 -12 -2 -15 3 -4 6
-18 6 -36 1 -17 -5 -30 -6 -30 -2 0 4 -44 6 -97 4 -128 -4 -132 -4 -175 0 -21
2 -38 0 -38 -4 0 -4 -10 -4 -22 1 -13 4 -35 5 -50 1 -14 -5 -29 -6 -32 -2 -7
6 -242 6 -272 -1 -11 -3 -26 -2 -33 3 -7 4 -28 4 -47 0 -19 -4 -34 -5 -34 -1
0 8 -65 6 -79 -3 -5 -4 -12 -2 -15 3 -4 6 -18 6 -36 1 -17 -5 -30 -6 -30 -2 0
4 -44 6 -97 4 -128 -4 -132 -4 -175 0 -21 2 -38 0 -38 -4 0 -4 -10 -4 -22 1
-13 4 -35 5 -50 1 -14 -5 -29 -6 -32 -2 -7 6 -242 6 -272 -1 -11 -3 -26 -2
-33 3 -7 4 -28 4 -47 0 -19 -4 -34 -5 -34 -1 0 8 -65 6 -79 -3 -5 -4 -12 -2
-15 3 -4 6 -18 6 -36 1 -17 -5 -30 -6 -30 -2 0 4 -44 6 -97 4 -128 -4 -132 -4
-175 0 -21 2 -38 0 -38 -4 0 -4 -10 -4 -22 1 -13 4 -35 5 -50 1 -14 -5 -29 -6
-32 -2 -7 6 -242 6 -272 -1 -11 -3 -26 -2 -33 3 -7 4 -28 4 -47 0 -19 -4 -34
-5 -34 -1 0 8 -65 6 -79 -3 -5 -4 -12 -2 -15 3 -4 6 -18 6 -36 1 -17 -5 -30
-6 -30 -2 0 4 -44 6 -97 4 -128 -4 -132 -4 -175 0 -21 2 -38 0 -38 -4 0 -4
-10 -4 -22 1 -13 4 -35 5 -50 1 -14 -5 -29 -6 -32 -2 -7 6 -242 6 -272 -1 -11
-3 -26 -2 -33 3 -7 4 -28 4 -47 0 -19 -4 -34 -5 -34 -1 0 8 -65 6 -79 -3 -5
-4 -12 -2 -15 3 -4 6 -18 6 -36 1 -17 -5 -30 -6 -30 -2 0 4 -44 6 -97 4 -128
-4 -132 -4 -175 0 -21 2 -38 0 -38 -4 0 -4 -10 -4 -22 1 -13 4 -35 5 -50 1
-14 -5 -29 -6 -32 -2 -7 6 -242 6 -272 -1 -11 -3 -26 -2 -33 3 -7 4 -28 4 -47
0 -19 -4 -34 -5 -34 -1 0 8 -65 6 -79 -3 -5 -4 -12 -2 -15 3 -4 6 -18 6 -36 1
-17 -5 -30 -6 -30 -2 0 4 -13 7 -30 7 l-30 0 0 -882z"/>
</g>
</svg>
