<?xml version="1.0" encoding="UTF-8"?><!DOCTYPE svg PUBLIC "-//W3C//DTD SVG 1.1//EN" "http://www.w3.org/Graphics/SVG/1.1/DTD/svg11.dtd"><svg xmlns="http://www.w3.org/2000/svg" xmlns:xlink="http://www.w3.org/1999/xlink"><symbol id="all-inclusive" viewBox="0 0 71.429 60"><path d="M1.161,4A1.428,1.428,0,0,0,0,5.429V62.571A1.431,1.431,0,0,0,1.429,64H70a1.431,1.431,0,0,0,1.429-1.429V5.429A1.431,1.431,0,0,0,70,4H1.161Zm1.7,2.857H68.571V61.143H2.857ZM58.571,15.7a1.413,1.413,0,0,0-1.027.625l-3.17,4.464-2.5-1.92a1.433,1.433,0,1,0-1.741,2.277L53.839,24a1.426,1.426,0,0,0,1.094.285,1.407,1.407,0,0,0,.96-.6l3.973-5.714A1.427,1.427,0,0,0,58.571,15.7ZM12.857,18.286v2.857H41.429V18.286Zm45.714,11.7a1.413,1.413,0,0,0-1.027.625l-3.17,4.464-2.5-1.92a1.433,1.433,0,0,0-1.741,2.277l3.705,2.857a1.426,1.426,0,0,0,1.094.285,1.407,1.407,0,0,0,.96-.6l3.973-5.714a1.427,1.427,0,0,0-1.295-2.277ZM12.857,32.571v2.857H41.429V32.571Zm45.714,11.7a1.413,1.413,0,0,0-1.027.625l-3.17,4.464-2.5-1.92a1.433,1.433,0,0,0-1.741,2.277l3.705,2.857a1.426,1.426,0,0,0,1.094.285,1.407,1.407,0,0,0,.96-.6l3.973-5.714a1.427,1.427,0,0,0-1.295-2.277ZM12.857,46.857v2.857H41.429V46.857Z" transform="translate(0 -4)"/></symbol><symbol id="budget-control" viewBox="0 0 71.878 60"><path d="M30.352,2.3C13.906,2.3.2,15.7.2,32.148S13.6,62.3,30.048,62.3a45.439,45.439,0,0,0,6.4-.609,33.734,33.734,0,0,0,5.787.609,29.848,29.848,0,0,0,0-59.7h0a37.313,37.313,0,0,0-5.787.609A21.1,21.1,0,0,0,30.352,2.3Zm0,3.35a30.008,30.008,0,0,1,5.178.609,1.119,1.119,0,0,0,.914.3,27.012,27.012,0,0,1,20.1,31.98,27.035,27.035,0,0,1-20.1,20.1,1.119,1.119,0,0,0-.914.3A27.179,27.179,0,0,1,4.159,37.325,26.459,26.459,0,0,1,25.175,6.259,30.008,30.008,0,0,1,30.352,5.65Zm14.01.3A26.6,26.6,0,0,1,68.728,34.584,26.976,26.976,0,0,1,44.362,58.95a29.455,29.455,0,0,0,12.487-40.2A29.8,29.8,0,0,0,44.362,5.955ZM28.829,14.178v3.655c-2.741.3-7.614,2.741-7.614,8.223,0,10.66,15.533,5.178,15.533,13.1,0,2.741-1.218,5.178-6.4,5.178a6.172,6.172,0,0,1-6.7-5.787v-.3H20.3c.609,7.005,5.482,8.832,8.528,9.137v3.046h3.35V47.376c2.437-.3,8.223-1.827,8.223-8.528,0-5.482-4.569-7.005-8.832-7.919-3.35-.914-6.7-1.523-6.7-5.178,0-1.523.609-4.873,5.787-4.873a5.118,5.118,0,0,1,5.482,4.873h3.35c-.914-3.655-2.741-7.005-7.614-7.919V14.178Z" transform="translate(-0.2 -2.3)"/></symbol><symbol id="circle-arrow" viewBox="0 0 30 30">
  <g id="circle-arrow" transform="translate(1449 1144)">
    <circle id="Ellipse_9" data-name="Ellipse 9" cx="15" cy="15" r="15" transform="translate(-1449 -1144)"/>
    <g id="Group_7497" data-name="Group 7497" transform="translate(-0.407 -0.305)">
      <path id="Path_3965" data-name="Path 3965" d="M-1430.431-1135.7l4.893,4.893-4.893,4.893" transform="translate(-2.295 2.409)" stroke="#0078a1" stroke-width="2"/>
      <path id="Path_3966" data-name="Path 3966" d="M-1439.917-1129.393h12.195" transform="translate(0.324 1)" stroke="#0078a1" stroke-width="2"/>
    </g>
  </g>
</symbol><symbol id="circle-arrows" viewBox="0 0 30 30">
  <g id="circle-arrows" transform="translate(1449 1144)">
    <circle id="Ellipse_9" data-name="Ellipse 9" cx="15" cy="15" r="15" transform="translate(-1449 -1144)"/>
    <path id="Polygon_1" data-name="Polygon 1" d="M3,0,6,5H0Z" transform="translate(-1437 -1137)"/>
    <path id="Polygon_2" data-name="Polygon 2" d="M3,0,6,5H0Z" transform="translate(-1435 -1132)"/>
    <path id="Polygon_3" data-name="Polygon 3" d="M3,0,6,5H0Z" transform="translate(-1439 -1127)"/>
    <g id="Polygon_5" data-name="Polygon 5" transform="translate(-1446 -1133)">
      <path d="M3,0,6,5H0Z" stroke="none"/>
      <path d="M 3 1.943650007247925 L 1.766190052032471 4 L 4.233809947967529 4 L 3 1.943650007247925 M 3 0 L 6 5 L 0 5 L 3 0 Z" stroke="none"/>
    </g>
    <path id="Polygon_4" data-name="Polygon 4" d="M3,0,6,5H0Z" transform="translate(-1434 -1122)"/>
  </g>
</symbol><symbol id="circle-minus" viewBox="0 0 30 30"><g transform="translate(-467 -21)"><circle cx="15" cy="15" r="15" transform="translate(467 21)"/><g transform="translate(464 28)"><path d="M0,0V12" transform="translate(24.5 8) rotate(90)" stroke="#0078a1" stroke-width="2"/></g></g></symbol><symbol id="circle-plus" viewBox="0 0 30 30"><g transform="translate(-467 -21)"><circle cx="15" cy="15" r="15" transform="translate(467 21)"/><g transform="translate(-9)"><g transform="translate(481 28)"><path d="M0,0V12" transform="translate(16 8) rotate(90)" stroke="#0078a1" stroke-width="2"/></g><g transform="translate(473 46) rotate(-90)"><path d="M0,0V12" transform="translate(16 18) rotate(90)" stroke="#0078a1" stroke-width="2"/></g></g></g></symbol><symbol id="energy-savings" viewBox="0 0 65.734 60"><path d="M34.829,3.984a1.839,1.839,0,0,0-.246.027A32.642,32.642,0,0,0,18.674,8.274a1.514,1.514,0,0,0-.485.279A33.044,33.044,0,0,0,6.555,20.187a1.491,1.491,0,0,0-.29.5,32.693,32.693,0,0,0-4.256,15.89,1.4,1.4,0,0,0,.006.568A32.727,32.727,0,0,0,8.351,56.264a1.433,1.433,0,1,0,2.31-1.7c-.335-.452-.641-.926-.946-1.4l2.5-1.462a1.431,1.431,0,0,0-.67-2.672,1.461,1.461,0,0,0-.781.206l-2.5,1.474A29.825,29.825,0,0,1,4.918,38.28h2.8a1.428,1.428,0,0,0,0-2.856H4.9a29.9,29.9,0,0,1,3.31-12.311l2.437,1.406a1.425,1.425,0,1,0,1.428-2.466L9.632,20.646a30.071,30.071,0,0,1,9.014-9.014l1.406,2.438a1.427,1.427,0,1,0,2.466-1.43L21.112,10.2a29.9,29.9,0,0,1,12.311-3.31V9.716a1.428,1.428,0,0,0,2.856,0V6.9a29.9,29.9,0,0,1,12.311,3.31l-1.406,2.438a1.425,1.425,0,1,0,2.466,1.428l1.406-2.437a30.072,30.072,0,0,1,9.018,9.011l-2.437,1.406a1.427,1.427,0,1,0,1.43,2.466L61.5,23.112a29.812,29.812,0,0,1,3.3,12.311h-2.82a1.428,1.428,0,1,0,0,2.856h2.8a29.735,29.735,0,0,1-3.336,12.434l-2.5-1.473a1.468,1.468,0,0,0-.681-.206h-.139a1.428,1.428,0,0,0-.625,2.672l2.5,1.461c-.312.473-.62.946-.954,1.4a1.43,1.43,0,0,0,2.3,1.7,32.714,32.714,0,0,0,6.343-19.111,1.475,1.475,0,0,0,.006-.568,32.658,32.658,0,0,0-4.273-15.931v-.006a1.471,1.471,0,0,0-.256-.441A33.033,33.033,0,0,0,51.5,8.548L51.5,8.539a1.364,1.364,0,0,0-.463-.262A32.632,32.632,0,0,0,35.119,4.012h-.006A1.633,1.633,0,0,0,34.829,3.984Zm19.7,20.93L38.744,30.888a7.039,7.039,0,0,0-3.894-1.177,7.14,7.14,0,1,0,7.14,7.14c0-.044-.006-.083-.006-.129l12.859-11.3Zm-19.674,7.65A4.256,4.256,0,1,1,31.81,33.81,4.284,4.284,0,0,1,34.851,32.564ZM20.571,55.416a1.427,1.427,0,0,0-1.428,1.428v5.712a1.431,1.431,0,0,0,1.428,1.428H49.135a1.431,1.431,0,0,0,1.428-1.428V56.844a1.427,1.427,0,0,0-1.428-1.428ZM22,58.272H47.7v2.856H22Z" transform="translate(-1.982 -3.984)"/></symbol><symbol id="expert-technicians" viewBox="0 0 65.136 60"><path d="M41.933,1a2.837,2.837,0,0,0-2.772,2.813,8.558,8.558,0,0,0-5.054,2.853,9.591,9.591,0,0,0-4.158-1.59A2.836,2.836,0,0,0,27.178,2.3h-2.2a2.836,2.836,0,0,0-2.772,2.772,9.613,9.613,0,0,0-6.848,4.239,14.424,14.424,0,0,0-2.242,7.418,2.221,2.221,0,0,0-.693.245,3.414,3.414,0,0,0-1.467,1.671,8.2,8.2,0,0,0-.53,3.22v1.019l.978.245s.994.209,2.446.448c.092.428.178.876.285,1.3a3.911,3.911,0,0,0-.9,3.139A6.992,6.992,0,0,0,14.5,31.571c.346.438.8.479,1.223.693a14.009,14.009,0,0,0,1.182,3.872,11.891,11.891,0,0,0,1.06,1.753,6.11,6.11,0,0,0,.571.53c.01,1.61.015,2.95-.122,4.647a5.78,5.78,0,0,1-3.016,2.65c-1.646.825-3.786,1.59-5.951,2.527a18.775,18.775,0,0,0-6.114,3.872,11.354,11.354,0,0,0-3.22,7.5L.031,61H52.246l-.082-1.386A11.8,11.8,0,0,0,50.7,54.478h14.47l-.082-1.386a10.208,10.208,0,0,0-2.731-6.522,16.718,16.718,0,0,0-5.177-3.505c-1.819-.861-3.607-1.549-4.973-2.283a4.974,4.974,0,0,1-2.446-2.2c-.107-1.371-.133-2.486-.122-3.791a5.593,5.593,0,0,0,.448-.408,10.456,10.456,0,0,0,.9-1.508,12.3,12.3,0,0,0,.978-3.22c.341-.189.7-.219.978-.571a5.969,5.969,0,0,0,1.1-3.057v-.041a3.465,3.465,0,0,0-.734-2.65,12.81,12.81,0,0,0,.652-2.323c1.447-.25,2.446-.489,2.446-.489l.978-.245V19.261a7.518,7.518,0,0,0-.489-2.975,3.234,3.234,0,0,0-1.386-1.59,1.846,1.846,0,0,0-.571-.2,13.715,13.715,0,0,0-2.079-6.766,8.729,8.729,0,0,0-5.951-3.954A2.836,2.836,0,0,0,44.135,1Zm0,2.609h2.2a.3.3,0,0,1,.2.285V4.913a1.337,1.337,0,0,0,0,.285v7.541a1.3,1.3,0,1,0,2.609,0V6.584a5.874,5.874,0,0,1,3.709,2.568A11.7,11.7,0,0,1,52.409,15.1a1.892,1.892,0,0,0,.448,1.223,1.819,1.819,0,0,0,.815.489c.392.127.545.127.611.163s.082.036.2.326c.056.133.071.617.122.9a50.83,50.83,0,0,1-11.576,1.06h-1.59a5.458,5.458,0,0,0-.245-.611,3.456,3.456,0,0,0-1.467-1.712,2.357,2.357,0,0,0-.693-.245,14.46,14.46,0,0,0-2.283-7.378,10.54,10.54,0,0,0-.693-.9,6.2,6.2,0,0,1,3.057-1.834v6.155a1.3,1.3,0,1,0,2.609,0V5.158a1.328,1.328,0,0,0,0-.53V3.894A.3.3,0,0,1,41.933,3.609Zm-16.957,1.3h2.2a.3.3,0,0,1,.2.285V6.217a1.337,1.337,0,0,0,0,.285v7.541a1.3,1.3,0,1,0,2.609,0v-6.2A6.845,6.845,0,0,1,34.6,10.783,12.313,12.313,0,0,1,36.512,17.3,1.9,1.9,0,0,0,37,18.527a1.794,1.794,0,0,0,.815.489,6.355,6.355,0,0,1,.693.245c.1.051.178.061.326.408A9.781,9.781,0,0,1,39,20.81c-.321.071-.795.173-1.467.285a1.157,1.157,0,0,0-.326,0,1.275,1.275,0,0,0-.367.082,71.232,71.232,0,0,1-10.761.693,73.521,73.521,0,0,1-10.435-.611,1.3,1.3,0,0,0-1.019-.163c-.673-.112-1.147-.214-1.467-.285a8.881,8.881,0,0,1,.163-1.141c.148-.341.224-.352.326-.408s.28-.1.693-.245a1.815,1.815,0,0,0,.815-.489,1.931,1.931,0,0,0,.489-1.223,12.4,12.4,0,0,1,1.916-6.522,6.782,6.782,0,0,1,4.606-2.935v6.2a1.3,1.3,0,1,0,2.609,0V6.462a1.328,1.328,0,0,0,0-.53V5.2A.3.3,0,0,1,24.977,4.913ZM51.186,21.421c-.153.652-.316,1.1-.53,1.753l-.326.978.9.53a1.184,1.184,0,0,1,.245,1.019,3.69,3.69,0,0,1-.571,1.793c-.168.214-.209.168-.163.163l-1.1.082-.082,1.06a9.7,9.7,0,0,1-.937,2.935,8.163,8.163,0,0,1-.611,1.1c-.117.158-.2.275-.245.326h-.041c-.005.005,0,.041,0,.041l-.693.326V34.3a46.98,46.98,0,0,0,.122,4.769v.163l.082.163a7.334,7.334,0,0,0,3.709,3.709c1.595.861,3.439,1.518,5.136,2.323a14.346,14.346,0,0,1,4.361,2.935,7.393,7.393,0,0,1,1.753,3.505H48.7a19.347,19.347,0,0,0-5.91-3.628c-2.171-.938-4.3-1.7-5.951-2.527a5.862,5.862,0,0,1-3.016-2.609c-.143-1.717-.133-3.062-.122-4.688a6.905,6.905,0,0,0,.571-.53,12.441,12.441,0,0,0,1.019-1.753,14.418,14.418,0,0,0,1.182-3.872c.408-.214.846-.265,1.182-.693a6.993,6.993,0,0,0,1.264-3.546,3.87,3.87,0,0,0-.9-3.1c.132-.408.27-.831.408-1.345,1.376-.229,2.323-.448,2.323-.448l.978-.245V21.87h1.3A69.74,69.74,0,0,0,51.186,21.421ZM16.58,23.989a84.806,84.806,0,0,0,9.5.489,84.2,84.2,0,0,0,9.538-.489c-.076.25-.153.5-.245.775l-.326,1.019.9.53a1.562,1.562,0,0,1,.367,1.427,4.662,4.662,0,0,1-.693,2.242c-.234.3-.357.285-.367.285l-1.1.082-.122,1.06a11.858,11.858,0,0,1-1.1,3.587,9.72,9.72,0,0,1-.774,1.345c-.239.331-.489.515-.367.448l-.693.367v.774a54.853,54.853,0,0,0,.122,5.625v.163l.082.163a8.13,8.13,0,0,0,4.361,4.2c1.9.948,4.071,1.646,6.114,2.527a16.6,16.6,0,0,1,5.3,3.342,8.458,8.458,0,0,1,2.16,4.443H3.048a8.457,8.457,0,0,1,2.12-4.443,16.853,16.853,0,0,1,5.34-3.342c2.033-.881,4.183-1.58,6.073-2.527a8.147,8.147,0,0,0,4.361-4.2l.082-.326a54.855,54.855,0,0,0,.122-5.625v-.774l-.693-.367c.117.061-.163-.117-.408-.448a9.473,9.473,0,0,1-.815-1.345,11.385,11.385,0,0,1-1.1-3.587l-.122-1.06-1.1-.082c-.01,0-.133.015-.367-.285a4.661,4.661,0,0,1-.693-2.242,1.58,1.58,0,0,1,.367-1.427l.856-.53-.245-.937C16.733,24.494,16.651,24.254,16.58,23.989Z" transform="translate(-0.031 -1)"/></symbol><symbol id="flexibility" viewBox="0 0 60.75 60"><path d="M60.607,38.531h0a11.824,11.824,0,0,0-4.8-6.839,11.817,11.817,0,0,0-8.63-13.107A11.676,11.676,0,0,0,34.881,8.978,11.776,11.776,0,0,0,28.45,3.605a11.479,11.479,0,0,0-8.385.326A11.718,11.718,0,0,0,12.33,1,11.693,11.693,0,0,0,.77,12.723a8.372,8.372,0,0,0,.081,1.384L2.805,44.066l-.9.244.57,2.28L.444,48.137l1.221,1.954L.2,52.208l1.872,1.465-.651,2.442,2.28.733.163,2.524H5.736L6.062,61l2.931-.57,1.465-.163.407.407,1.058-.651,1.71-.326.9-.163h.244v-.326l.081.326,1.872-.326.977-.163,1.3-.163v-.163l1.3-.163L50.594,53.1c.488-.081.9-.163,1.384-.244A11.977,11.977,0,0,0,60.607,38.531ZM8.178,57.011,7.934,56.6l-.9-3.419-.9-3.664-.081-.488V46.59l-.488.488.407-1.14,14.491-4.8.57-.244.651-.163,13.84-4.4L46.2,32.913a1.157,1.157,0,0,1,.488-.163,5.192,5.192,0,0,1,.57-.163,8.811,8.811,0,0,1,5.943.651c.081.081.244.081.326.163.081,0,.163.081.244.081l.081.081c.081.081.244.163.326.244a8.421,8.421,0,0,1,3.663,5.21,8.733,8.733,0,0,1-.977,6.676,8.944,8.944,0,0,1-5.373,4.071c-.326.081-.733.163-1.14.244L20.39,55.545l-1.3.163-4.071.814-2.524.407-1.14.244-1.872.244-.733.163ZM41.231,13.7a8.488,8.488,0,0,1,3.012,4.478,11.038,11.038,0,0,0-6.35,1.954,6.791,6.791,0,0,1-.977.651L21.448,32.425l-8.792,6.513,9.281-13.6,6.187-9.2.163-.244c.163-.244.244-.488.407-.57l.081-.081a9,9,0,0,1,5.047-3.175,2.512,2.512,0,0,0,.733-.081,3.526,3.526,0,0,0,.407-.081h.081A7.713,7.713,0,0,1,41.231,13.7Zm8.06,15.957a9.57,9.57,0,0,0-2.768.326,6.1,6.1,0,0,0-1.3.407L21.448,38.042,20.8,38.2l-4.233,1.384L29.671,29.82l1.872-1.465,7-5.21.9-.733a8.683,8.683,0,0,1,4.722-1.465,5.375,5.375,0,0,1,1.14.081h.326l.163.081.081.081h.244c.081,0,.163.081.244.081a8.254,8.254,0,0,1,5.129,3.745,9.686,9.686,0,0,1,1.465,5.21A12.8,12.8,0,0,0,49.291,29.657ZM26.577,13.374a11.912,11.912,0,0,0-.733,1.058L22.1,20.05,8.911,39.507l7.246-26.621a6.6,6.6,0,0,1,.244-.9l.081-.081a8.45,8.45,0,0,1,3.745-4.64,1.879,1.879,0,0,0,.57-.407c.081,0,.081,0,.163-.081s.163-.081.244-.163a8.764,8.764,0,0,1,6.431-.326A9.13,9.13,0,0,1,31.95,9.548,12.11,12.11,0,0,0,26.577,13.374ZM13.8,10.851a10.126,10.126,0,0,0-.326,1.3L5.492,41.3,3.7,13.782V13.7a3.964,3.964,0,0,1-.081-.977A8.817,8.817,0,0,1,17.541,5.478,11.757,11.757,0,0,0,13.8,10.851Z" transform="translate(-0.2 -1)"/></symbol><symbol id="full-service" viewBox="0 0 59.995 60"><path d="M24.11,0a1.2,1.2,0,0,0-1.05,1.012L21.9,8.174a20.221,20.221,0,0,0-4.012,1.613L12,5.587a1.2,1.2,0,0,0-1.537.113L5.775,10.389a1.2,1.2,0,0,0-.113,1.531l4.125,5.925A20.279,20.279,0,0,0,8.1,21.9L1.012,23.061A1.2,1.2,0,0,0,0,24.261v6.6A1.2,1.2,0,0,0,.975,32.02l7.162,1.272A20.228,20.228,0,0,0,9.787,37.3L5.587,43.2A1.2,1.2,0,0,0,5.7,44.733l4.689,4.689a1.2,1.2,0,0,0,1.532.11l5.887-4.162a20.281,20.281,0,0,0,4.053,1.65l1.2,7.162a1.2,1.2,0,0,0,1.2,1.012h6.6a1.174,1.174,0,0,0,.338-.075V58.8A1.2,1.2,0,0,0,32.4,60h26.4a1.2,1.2,0,0,0,1.2-1.2V38.212A3.431,3.431,0,0,0,56.585,34.8H46.533c.183-.5.37-1.017.525-1.5l7.124-1.272A1.192,1.192,0,0,0,55.2,30.863v-6.6a1.2,1.2,0,0,0-1.012-1.2l-7.2-1.163a20.719,20.719,0,0,0-1.65-3.974l4.2-6.01a1.2,1.2,0,0,0-.113-1.537L44.731,5.694a1.2,1.2,0,0,0-1.537-.113L37.307,9.818A20.114,20.114,0,0,0,33.3,8.175L32.028.975A1.2,1.2,0,0,0,30.86,0h-6.6A.8.8,0,0,0,24.11,0Zm1.163,2.4h4.575l1.2,6.824a1.2,1.2,0,0,0,.862.938,17.86,17.86,0,0,1,4.912,2.062,1.2,1.2,0,0,0,1.312-.037l5.624-4.053,3.225,3.23-3.974,5.7a1.192,1.192,0,0,0-.075,1.312,17.828,17.828,0,0,1,2.025,4.875,1.192,1.192,0,0,0,.976.9L52.8,25.272v4.575l-6.859,1.2a1.192,1.192,0,0,0-.978.9c-.141.572-.6,1.842-.975,2.85H34.534A9.875,9.875,0,1,0,31.5,36.822a3.35,3.35,0,0,0-.3,1.388v1.163a.8.8,0,0,0,0,.15V46.16L29.846,52.8H25.273L24.148,46.01a1.192,1.192,0,0,0-.9-.975,17.927,17.927,0,0,1-4.95-2.025,1.2,1.2,0,0,0-1.312.037l-5.622,3.936L8.14,43.758l3.974-5.587a1.2,1.2,0,0,0,.037-1.312,17.551,17.551,0,0,1-2.027-4.911,1.192,1.192,0,0,0-.975-.9L2.4,29.847V25.272l6.75-1.125a1.192,1.192,0,0,0,.975-.9,18.033,18.033,0,0,1,2.066-4.95,1.2,1.2,0,0,0-.037-1.312L8.18,11.361l3.258-3.225,5.587,3.974a1.192,1.192,0,0,0,1.312.075A17.714,17.714,0,0,1,23.25,10.16a1.192,1.192,0,0,0,.9-.975ZM27.6,19.986a7.606,7.606,0,1,1-5.384,2.228A7.612,7.612,0,0,1,27.6,19.986Zm7.012,17.207h9.862a1.229,1.229,0,0,0,.715,0h11.4A.991.991,0,0,1,57.6,38.205v.188h-24v-.188a.991.991,0,0,1,1.013-1.012Zm-1.012,3.6h24v16.8h-24V46.308a1.182,1.182,0,0,0,0-.6Zm10.8.715-.862.825-4.012,4.012-1.537-1.312-.9-.788-1.576,1.839.9.75,2.4,2.062.862.75,5.587-5.587.825-.862Zm0,6-.862.825-4.012,4.012-1.537-1.312-.9-.788-1.576,1.839.9.75,2.4,2.062.862.75,5.587-5.587.825-.865Z" transform="translate(0 0.005)"/></symbol><symbol id="genuine-parts" viewBox="0 0 42.497 60"><path d="M24.8,1.009A5.157,5.157,0,0,0,20.534,3.48l-.332.547a2.632,2.632,0,0,1-2.207,1.279l-.64.01a5.163,5.163,0,0,0-5.039,5.039l-.015.64A2.638,2.638,0,0,1,11.027,13.2l-.547.332a5.163,5.163,0,0,0-1.846,6.88l.313.566a2.645,2.645,0,0,1,0,2.544l-.313.562a5.166,5.166,0,0,0,1.846,6.88l.547.332A2.616,2.616,0,0,1,12.3,33.505l.015.64a5.163,5.163,0,0,0,3.54,4.761L9.367,52.973A1.248,1.248,0,0,0,10.5,54.751h8.15l4.624,5.781a1.253,1.253,0,0,0,2.124-.278l3.892-8.9,3.892,8.9a1.253,1.253,0,0,0,2.124.278l4.624-5.781h8.15a1.248,1.248,0,0,0,1.133-1.777l-6.5-14.092a5.146,5.146,0,0,0,3.477-4.736l.015-.64A2.638,2.638,0,0,1,47.473,31.3l.547-.332a5.157,5.157,0,0,0,1.846-6.88h0l-.313-.567a2.645,2.645,0,0,1,0-2.544l.308-.562a5.161,5.161,0,0,0-1.841-6.88l-.547-.332A2.616,2.616,0,0,1,46.2,10.995v0l-.015-.635a5.163,5.163,0,0,0-5.039-5.039l-.64-.015A2.638,2.638,0,0,1,38.3,4.027l-.332-.547a5.163,5.163,0,0,0-6.88-1.846l-.567.313a2.645,2.645,0,0,1-2.544,0l-.562-.313a5.08,5.08,0,0,0-1.89-.6A4.535,4.535,0,0,0,24.8,1.009ZM24.733,3.5a2.664,2.664,0,0,1,1.475.327l.562.308a5.147,5.147,0,0,0,4.961,0l.562-.313v0a2.626,2.626,0,0,1,3.535.947l.332.547A5.161,5.161,0,0,0,40.451,7.8l.64.015A2.626,2.626,0,0,1,43.684,10.4l.015.645a5.139,5.139,0,0,0,2.481,4.292l.547.332a2.629,2.629,0,0,1,.947,3.535l-.313.562a5.147,5.147,0,0,0,0,4.961h0v0l.308.557a2.622,2.622,0,0,1-.947,3.535l-.547.332a5.14,5.14,0,0,0-2.481,4.3l-.015.635v0A2.621,2.621,0,0,1,41.1,36.684l-.64.015a5.137,5.137,0,0,0-4.292,2.481l-.332.547a2.631,2.631,0,0,1-3.54.947l-.562-.308a5.147,5.147,0,0,0-4.961,0l-.562.308a2.626,2.626,0,0,1-3.535-.947l-.332-.547A5.161,5.161,0,0,0,18.049,36.7h0l-.635-.015A2.626,2.626,0,0,1,14.816,34.1v0l-.015-.635a5.14,5.14,0,0,0-2.481-4.3l-.547-.332a2.631,2.631,0,0,1-.947-3.535l.308-.562a5.147,5.147,0,0,0,0-4.961l-.308-.562a2.626,2.626,0,0,1,.947-3.535l.547-.332A5.161,5.161,0,0,0,14.8,11.049l.015-.645A2.625,2.625,0,0,1,17.4,7.816h0l.635-.01a5.163,5.163,0,0,0,4.3-2.481l.332-.547a2.626,2.626,0,0,1,1.577-1.2A2.275,2.275,0,0,1,24.733,3.5ZM38.352,13.607l-10.3,16.1-8.277-7.456L18.1,24.12l10.474,9.419,11.89-18.584Zm1.777,25.65,6,12.993h-6.8a1.248,1.248,0,0,0-.977.469l-3.711,4.634-3.984-9.126,2.1-4.8a5.148,5.148,0,0,0,5.205-2.4l.332-.547A2.614,2.614,0,0,1,40.129,39.257Zm-21.68,0A2.64,2.64,0,0,1,20.2,40.473l.332.547a5.163,5.163,0,0,0,6.88,1.846v0l.566-.3a2.6,2.6,0,0,1,2.446-.039L23.937,57.353l-3.711-4.634a1.248,1.248,0,0,0-.977-.469h-6.8Z" transform="translate(-8.002 -1.002)"/></symbol><symbol id="icon-no" viewBox="0 0 30 30"><path d="M21,6A15.011,15.011,0,0,0,6,21,15.011,15.011,0,0,0,21,36,15.011,15.011,0,0,0,36,21,15.011,15.011,0,0,0,21,6Zm0,1.552a13.425,13.425,0,0,1,9.518,3.931A13.274,13.274,0,0,1,34.448,21a13.46,13.46,0,0,1-22.966,9.518A13.274,13.274,0,0,1,7.552,21a13.425,13.425,0,0,1,3.931-9.517A13.274,13.274,0,0,1,21,7.552Zm-3.475,9.181a.718.718,0,0,0-.533.233.75.75,0,0,0,0,1.086L19.914,21l-2.948,2.923a.75.75,0,0,0,0,1.086.75.75,0,0,0,1.086,0L21,22.086l2.923,2.923a.75.75,0,0,0,1.086,0,.75.75,0,0,0,0-1.086L22.086,21l2.923-2.923a.8.8,0,0,0,.026-1.112.75.75,0,0,0-1.086,0L21,19.914l-2.923-2.948A.782.782,0,0,0,17.525,16.733Z" transform="translate(-6 -6)"/></symbol><symbol id="icon-upgrade" viewBox="0 0 10.992 12.091"><path d="M165.5,144l-5.5,5.5h4.4v6.6h2.2v-6.6h4.4Z" transform="translate(-160 -144)"/></symbol><symbol id="icon-yes" viewBox="0 0 30 30"><path d="M21,6A15,15,0,1,0,36,21,15.011,15.011,0,0,0,21,6Zm0,1.552A13.448,13.448,0,1,1,7.552,21,13.455,13.455,0,0,1,21,7.552Zm5.441,9.556a.826.826,0,0,0-.553.246l-5.405,5.612L17.664,19.94a.769.769,0,1,0-1.138,1.034l3.388,3.646a.783.783,0,0,0,.569.259.8.8,0,0,0,.569-.233L27,18.414a.772.772,0,0,0-.026-1.086A.683.683,0,0,0,26.441,17.108Z" transform="translate(-6 -6)"/></symbol><symbol id="investment" viewBox="0 0 53.75 60"><path d="M7,2V59.5H20.75V57H9.5V4.5h25v15h15V35.75H52V17.732L36.268,2ZM37,6.268,47.732,17H37ZM20.75,10.75v2.827a5.977,5.977,0,0,0-4.219,2.6,6.469,6.469,0,0,0-.781,2.876,5.429,5.429,0,0,0,2.266,4.395,16.49,16.49,0,0,0,4.175,2,15.3,15.3,0,0,1,3.56,1.665A2.589,2.589,0,0,1,27,29.5a3.9,3.9,0,0,1-.591,1.836c-.581.933-1.616,1.914-4.409,1.914-2.71,0-3.721-1.172-4.351-2.437A6.637,6.637,0,0,1,17,28.25H14.5a8.944,8.944,0,0,0,.913,3.687,6.976,6.976,0,0,0,5.337,3.638V38.25h2.5V35.462c2.6-.356,4.443-1.465,5.278-2.8A6.525,6.525,0,0,0,29.5,29.5a5.429,5.429,0,0,0-2.266-4.395,16.474,16.474,0,0,0-4.175-2,15.507,15.507,0,0,1-3.56-1.66,2.6,2.6,0,0,1-1.25-2.393,4.029,4.029,0,0,1,.469-1.675c.459-.83,1.162-1.631,3.281-1.631,2.085,0,2.783.859,3.257,1.812A5.081,5.081,0,0,1,25.75,19.5h2.5a7.388,7.388,0,0,0-.757-3.062,6.01,6.01,0,0,0-4.243-2.832V10.75Zm30,27.5a20.092,20.092,0,0,0-6.606.991,6.982,6.982,0,0,0-2.261,1.216A2.985,2.985,0,0,0,40.8,42.264a1.136,1.136,0,0,0-.054.361v2c-.288-.132-.571-.269-.894-.381a20.092,20.092,0,0,0-6.606-.991,20.092,20.092,0,0,0-6.607.991,6.982,6.982,0,0,0-2.261,1.216A2.985,2.985,0,0,0,23.3,47.264a1.136,1.136,0,0,0-.054.361v10a2.89,2.89,0,0,0,1.133,2.168,6.982,6.982,0,0,0,2.261,1.216A20.092,20.092,0,0,0,33.25,62a20.092,20.092,0,0,0,6.606-.991A7.418,7.418,0,0,0,42,59.886a7.418,7.418,0,0,0,2.144,1.123A20.092,20.092,0,0,0,50.75,62a20.092,20.092,0,0,0,6.606-.991,6.984,6.984,0,0,0,2.261-1.216,2.89,2.89,0,0,0,1.133-2.168v-15a1.2,1.2,0,0,0-.054-.371h0a2.994,2.994,0,0,0-1.079-1.8,6.984,6.984,0,0,0-2.261-1.216A20.092,20.092,0,0,0,50.75,38.25Zm0,2.5a18.222,18.222,0,0,1,5.767.84,5.131,5.131,0,0,1,1.489.776.866.866,0,0,1,.244.259.863.863,0,0,1-.244.259,5.131,5.131,0,0,1-1.489.776,18.222,18.222,0,0,1-5.767.84,18.222,18.222,0,0,1-5.767-.84,5.131,5.131,0,0,1-1.489-.776.863.863,0,0,1-.244-.259.866.866,0,0,1,.244-.259,5.131,5.131,0,0,1,1.489-.776A18.222,18.222,0,0,1,50.75,40.75Zm-7.5,4.878c.288.132.571.269.894.381A20.092,20.092,0,0,0,50.75,47a20.092,20.092,0,0,0,6.606-.991c.322-.112.605-.249.894-.381v2a.863.863,0,0,1-.244.259,5.131,5.131,0,0,1-1.489.776,18.222,18.222,0,0,1-5.767.84,18.222,18.222,0,0,1-5.767-.84,5.131,5.131,0,0,1-1.489-.776.863.863,0,0,1-.244-.259Zm-10,.122a18.222,18.222,0,0,1,5.767.84,5.131,5.131,0,0,1,1.489.776.866.866,0,0,1,.244.259.863.863,0,0,1-.244.259,5.131,5.131,0,0,1-1.489.776,18.222,18.222,0,0,1-5.767.84,18.222,18.222,0,0,1-5.767-.84,5.131,5.131,0,0,1-1.489-.776.863.863,0,0,1-.244-.259.866.866,0,0,1,.244-.259,5.131,5.131,0,0,1,1.489-.776A18.222,18.222,0,0,1,33.25,45.75Zm-7.5,4.878c.288.132.571.269.893.381A20.092,20.092,0,0,0,33.25,52a20.092,20.092,0,0,0,6.606-.991c.322-.112.605-.249.894-.381v2a.863.863,0,0,1-.244.259,5.131,5.131,0,0,1-1.489.776,18.222,18.222,0,0,1-5.767.84,18.222,18.222,0,0,1-5.767-.84,5.131,5.131,0,0,1-1.489-.776.863.863,0,0,1-.244-.259Zm17.5,0c.288.132.571.269.894.381A20.092,20.092,0,0,0,50.75,52a20.092,20.092,0,0,0,6.606-.991c.322-.112.605-.249.894-.381v2a.863.863,0,0,1-.244.259,5.131,5.131,0,0,1-1.489.776,18.222,18.222,0,0,1-5.767.84,18.222,18.222,0,0,1-5.767-.84,5.131,5.131,0,0,1-1.489-.776.863.863,0,0,1-.244-.259Zm-17.5,5c.288.132.571.269.893.381A20.092,20.092,0,0,0,33.25,57a20.092,20.092,0,0,0,6.606-.991c.322-.112.605-.249.894-.381v2a.863.863,0,0,1-.244.259,5.131,5.131,0,0,1-1.489.776,18.222,18.222,0,0,1-5.767.84,18.222,18.222,0,0,1-5.767-.84,5.131,5.131,0,0,1-1.489-.776.863.863,0,0,1-.244-.259Zm17.5,0c.288.132.571.269.894.381A20.092,20.092,0,0,0,50.75,57a20.092,20.092,0,0,0,6.606-.991c.322-.112.605-.249.894-.381v2a.863.863,0,0,1-.244.259,5.131,5.131,0,0,1-1.489.776,18.222,18.222,0,0,1-5.767.84,18.222,18.222,0,0,1-5.767-.84,5.131,5.131,0,0,1-1.489-.776.863.863,0,0,1-.244-.259Z" transform="translate(-7 -2)"/></symbol><symbol id="less-administration" viewBox="0 0 42.6 60.004"><g transform="translate(904.999 810.002)"><path d="M44.6,7.933H35.25a4.627,4.627,0,0,0-4.156-2.6v-.26C31.094,2.218,28.237.4,25.9.4H24.081c-2.6,0-5.455,2.078-5.455,4.676v.26a4.627,4.627,0,0,0-4.156,2.6H4.6a1.227,1.227,0,0,0-1.3,1.3V59.105a1.227,1.227,0,0,0,1.3,1.3h40a1.227,1.227,0,0,0,1.3-1.3V9.232A1.227,1.227,0,0,0,44.6,7.933Zm-26.235.26h1.3a1.227,1.227,0,0,0,1.3-1.3V5.076C20.963,4.037,22.522,3,23.821,3h1.818c1.3,0,2.6,1.039,2.6,2.078V6.634a1.227,1.227,0,0,0,1.3,1.3h1.3a2.338,2.338,0,0,1,0,4.676H18.366a2.328,2.328,0,0,1-2.338-2.338A2.122,2.122,0,0,1,18.366,8.193ZM5.9,10.531h7.533a4.932,4.932,0,0,0,4.935,4.935H30.834a4.932,4.932,0,0,0,4.935-4.935H43.3V57.806H5.9Z" transform="translate(-908.299 -810.402)"/><path d="M15.8,15.193a1.35,1.35,0,0,0,1.039.52h0a1.969,1.969,0,0,0,1.039-.52l4.156-4.935a1.283,1.283,0,0,0-.26-1.818,1.571,1.571,0,0,0-2.078,0l-3.117,3.9-.519-.519a1.286,1.286,0,0,0-1.818,1.818Z" transform="translate(-891.448 -798.179)"/><path d="M19.695,12.159l-3.117,3.9-.52-.779a1.286,1.286,0,0,0-1.818,1.818L15.8,18.913a1.349,1.349,0,0,0,1.039.519h0a1.969,1.969,0,0,0,1.039-.519l4.156-4.935a1.283,1.283,0,0,0-.26-1.818C20.993,11.38,20.214,11.38,19.695,12.159Z" transform="translate(-891.448 -792.548)"/><path d="M19.695,15.979l-3.117,3.9-.519-.52a1.286,1.286,0,0,0-1.818,1.818L15.8,22.993a1.35,1.35,0,0,0,1.039.52h0a1.969,1.969,0,0,0,1.039-.52l4.156-4.935a1.283,1.283,0,0,0-.26-1.818C20.993,15.2,20.214,15.46,19.695,15.979Z" transform="translate(-891.448 -786.239)"/><path d="M22.265,9.1H7.2a1.227,1.227,0,0,0-1.3,1.3,1.227,1.227,0,0,0,1.3,1.3H22.265a1.227,1.227,0,0,0,1.3-1.3A1.227,1.227,0,0,0,22.265,9.1Z" transform="translate(-904.147 -796.503)"/><path d="M22.265,12.9H7.2a1.227,1.227,0,0,0-1.3,1.3,1.227,1.227,0,0,0,1.3,1.3H22.265a1.227,1.227,0,0,0,1.3-1.3A1.227,1.227,0,0,0,22.265,12.9Z" transform="translate(-904.147 -790.432)"/><path d="M22.265,16.8H7.2a1.3,1.3,0,1,0,0,2.6H22.265a1.3,1.3,0,0,0,0-2.6Z" transform="translate(-904.147 -784.199)"/></g></symbol><symbol id="minimal-footprint" viewBox="0 0 59.976 60"><path d="M24.486,0a4.559,4.559,0,0,0-3.3,1.612A7.121,7.121,0,0,0,19.873,3.75a5.208,5.208,0,0,0-.225-.525A3.877,3.877,0,0,0,16.723,1.2,3.858,3.858,0,0,0,13.5,2.663a5.706,5.706,0,0,0-.937,1.5A3.128,3.128,0,0,0,10.8,3.6,3.835,3.835,0,0,0,7.236,7.388a2.476,2.476,0,0,0-1.35-.15A2.736,2.736,0,0,0,3.936,8.85a3.859,3.859,0,0,0-.262,2.137,2.523,2.523,0,0,0-1.387-.15A2.736,2.736,0,0,0,.336,12.45a4.035,4.035,0,0,0-.225,2.513,4.135,4.135,0,0,0,1.2,2.212,2.821,2.821,0,0,0,2.4.788,2.766,2.766,0,0,0,1.95-1.613,3.817,3.817,0,0,0,.262-2.137,2.524,2.524,0,0,0,1.387.15,2.766,2.766,0,0,0,1.95-1.613,3.542,3.542,0,0,0,.262-1.012A3.1,3.1,0,0,0,10.8,12a3.271,3.271,0,0,0,2.55-1.238A3.665,3.665,0,0,0,15.673,12,3.87,3.87,0,0,0,18.9,10.538a5.88,5.88,0,0,0,.638-.9,7.179,7.179,0,0,0,.3.862,4.346,4.346,0,0,0,3.15,2.663,4.327,4.327,0,0,0,3.825-1.575A8.108,8.108,0,0,0,28.686,7.35a8.324,8.324,0,0,0-.525-4.65A4.356,4.356,0,0,0,25.011.038,3.337,3.337,0,0,0,24.486,0ZM35.511,0a3.335,3.335,0,0,0-.525.037A4.355,4.355,0,0,0,31.836,2.7a8.323,8.323,0,0,0-.525,4.65,8.106,8.106,0,0,0,1.875,4.237,4.326,4.326,0,0,0,3.825,1.575,4.346,4.346,0,0,0,3.15-2.663,7.22,7.22,0,0,0,.3-.862,5.871,5.871,0,0,0,.637.9A3.87,3.87,0,0,0,44.323,12a3.665,3.665,0,0,0,2.325-1.238A3.271,3.271,0,0,0,49.2,12a3.1,3.1,0,0,0,1.275-.263,3.543,3.543,0,0,0,.263,1.012,2.766,2.766,0,0,0,1.95,1.613,2.523,2.523,0,0,0,1.387-.15,3.817,3.817,0,0,0,.263,2.137,2.766,2.766,0,0,0,1.95,1.613,2.835,2.835,0,0,0,2.4-.788,4.136,4.136,0,0,0,1.2-2.212,4.036,4.036,0,0,0-.225-2.513,2.736,2.736,0,0,0-1.95-1.613,2.523,2.523,0,0,0-1.388.15,3.859,3.859,0,0,0-.262-2.137,2.736,2.736,0,0,0-1.95-1.612,2.476,2.476,0,0,0-1.35.15A3.842,3.842,0,0,0,49.2,3.6a3.127,3.127,0,0,0-1.762.562,5.71,5.71,0,0,0-.938-1.5,3.6,3.6,0,0,0-6.15.563,5.208,5.208,0,0,0-.225.525,7.123,7.123,0,0,0-1.312-2.137A4.56,4.56,0,0,0,35.511,0ZM24.261,2.4a1.257,1.257,0,0,1,.375,0c.478.08.937.487,1.312,1.312a5.925,5.925,0,0,1,.375,3.262,6.038,6.038,0,0,1-1.312,3.037A1.821,1.821,0,0,1,23.4,10.8h-.037c-.478-.08-.938-.488-1.313-1.312a5.925,5.925,0,0,1-.375-3.262,6.015,6.015,0,0,1,1.313-3.037A2.2,2.2,0,0,1,24.261,2.4Zm11.1,0a1.871,1.871,0,0,1,1.65.787,6.035,6.035,0,0,1,1.312,3.037,5.925,5.925,0,0,1-.375,3.262c-.375.825-.834,1.233-1.312,1.312H36.6a1.821,1.821,0,0,1-1.612-.788,6.037,6.037,0,0,1-1.313-3.037,5.925,5.925,0,0,1,.375-3.262C34.423,2.888,34.882,2.48,35.361,2.4ZM16.2,3.6a1.072,1.072,0,0,1,.3,0,1.4,1.4,0,0,1,1.05.825,4.041,4.041,0,0,1,.413,2.325A4.07,4.07,0,0,1,17.1,8.963a1.467,1.467,0,0,1-1.2.637,1.4,1.4,0,0,1-1.05-.825,4,4,0,0,1-.412-2.325A4.069,4.069,0,0,1,15.3,4.238,1.73,1.73,0,0,1,16.2,3.6Zm27.3,0a1.462,1.462,0,0,1,1.2.637,4.055,4.055,0,0,1,.863,2.212,4,4,0,0,1-.413,2.325A1.4,1.4,0,0,1,44.1,9.6a1.467,1.467,0,0,1-1.2-.637,4.069,4.069,0,0,1-.862-2.212,4.04,4.04,0,0,1,.412-2.325A1.4,1.4,0,0,1,43.5,3.6ZM10.8,6c.511,0,1.2.661,1.2,1.8s-.689,1.8-1.2,1.8S9.6,8.934,9.6,7.8,10.287,6,10.8,6ZM49.2,6c.516,0,1.2.661,1.2,1.8s-.684,1.8-1.2,1.8S48,8.939,48,7.8,48.682,6,49.2,6ZM6.3,9.6h.037c.037,0,.1,0,.3.188a1.8,1.8,0,0,1,.525.938,1.831,1.831,0,0,1-.075,1.05c-.1.216-.187.22-.225.225s-.1,0-.3-.187a1.8,1.8,0,0,1-.525-.937,1.827,1.827,0,0,1,.075-1.05C6.209,9.609,6.261,9.6,6.3,9.6Zm47.363,0H53.7c.038,0,.089.009.188.225a1.827,1.827,0,0,1,.075,1.05,1.805,1.805,0,0,1-.525.938c-.178.169-.258.192-.3.188H53.1c-.037-.009-.1-.028-.187-.225a1.83,1.83,0,0,1-.075-1.05,1.8,1.8,0,0,1,.525-.938C53.557,9.6,53.623,9.6,53.661,9.6ZM2.7,13.2h.037c.037,0,.1,0,.3.188a1.8,1.8,0,0,1,.525.937,1.831,1.831,0,0,1-.075,1.05c-.1.216-.187.22-.225.225s-.1,0-.3-.187a1.8,1.8,0,0,1-.525-.938,1.827,1.827,0,0,1,.075-1.05C2.609,13.209,2.661,13.2,2.7,13.2Zm54.563,0H57.3c.038,0,.089.009.188.225a1.827,1.827,0,0,1,.075,1.05,1.806,1.806,0,0,1-.525.938c-.178.169-.258.192-.3.187H56.7c-.037-.009-.1-.028-.187-.225a1.83,1.83,0,0,1-.075-1.05,1.8,1.8,0,0,1,.525-.937C57.157,13.2,57.223,13.2,57.261,13.2Zm-38.25,1.2a22.1,22.1,0,0,0-9.638,2.325A12.2,12.2,0,0,0,2.4,27.45c-.159,5.264,1.448,8.8,2.962,12.113S8.286,45.956,8.286,50.85a10.617,10.617,0,0,0,1.875,6.075A6.913,6.913,0,0,0,15.786,60c3.164,0,5.437-1.027,6.787-2.7a9.573,9.573,0,0,0,1.8-5.887c.122-4.027-1.683-6.516-3.262-8.475s-2.888-3.413-2.888-6.263c0-3.652,1.688-5.18,3.713-7.087s4.462-4.2,4.462-8.325a6.478,6.478,0,0,0-2.887-5.775A8.517,8.517,0,0,0,19.011,14.4Zm21.975,0a8.516,8.516,0,0,0-4.5,1.088A6.478,6.478,0,0,0,33.6,21.263c0,4.125,2.438,6.417,4.463,8.325s3.712,3.436,3.712,7.087c0,2.85-1.308,4.3-2.887,6.263s-3.384,4.448-3.263,8.475a9.573,9.573,0,0,0,1.8,5.887c1.35,1.673,3.623,2.7,6.788,2.7a6.913,6.913,0,0,0,5.625-3.075,10.617,10.617,0,0,0,1.875-6.075c0-4.894,1.411-7.978,2.925-11.287S57.757,32.714,57.6,27.45a12.2,12.2,0,0,0-6.975-10.725A22.1,22.1,0,0,0,40.986,14.4ZM19.011,16.8a6.6,6.6,0,0,1,3.262.75c.97.591,1.725,1.486,1.725,3.713,0,3.239-1.659,4.631-3.712,6.562s-4.463,4.392-4.463,8.85c0,3.633,1.9,5.845,3.45,7.763s2.8,3.567,2.7,6.9A7.439,7.439,0,0,1,20.7,55.8c-.853,1.059-2.222,1.8-4.912,1.8a4.37,4.37,0,0,1-3.675-2.062,8.413,8.413,0,0,1-1.425-4.688c0-5.377-1.641-9-3.15-12.3S4.653,32.25,4.8,27.488c.141-4.57,2.606-7.078,5.662-8.663A20.327,20.327,0,0,1,19.011,16.8Zm21.975,0a20.328,20.328,0,0,1,8.55,2.025c3.056,1.584,5.522,4.092,5.662,8.663.145,4.762-1.228,7.758-2.737,11.062s-3.15,6.923-3.15,12.3a8.446,8.446,0,0,1-1.463,4.688A4.307,4.307,0,0,1,44.211,57.6c-2.691,0-4.059-.741-4.913-1.8a7.439,7.439,0,0,1-1.275-4.462c-.1-3.333,1.153-4.983,2.7-6.9s3.45-4.13,3.45-7.763c0-4.458-2.409-6.919-4.462-8.85S36,24.5,36,21.263c0-2.227.755-3.122,1.725-3.713A6.6,6.6,0,0,1,40.986,16.8Z" transform="translate(-0.01)"/></symbol><symbol id="optimal-performance" viewBox="0 0 65.734 60"><path d="M34.829,3.984a1.839,1.839,0,0,0-.246.027A32.642,32.642,0,0,0,18.674,8.274a1.514,1.514,0,0,0-.485.279A33.044,33.044,0,0,0,6.555,20.187a1.491,1.491,0,0,0-.29.5,32.693,32.693,0,0,0-4.256,15.89,1.4,1.4,0,0,0,.006.568A32.727,32.727,0,0,0,8.351,56.264a1.433,1.433,0,1,0,2.31-1.7c-.335-.452-.641-.926-.946-1.4l2.5-1.462a1.431,1.431,0,0,0-.67-2.672,1.461,1.461,0,0,0-.781.206l-2.5,1.474A29.825,29.825,0,0,1,4.918,38.28h2.8a1.428,1.428,0,0,0,0-2.856H4.9a29.9,29.9,0,0,1,3.31-12.311l2.437,1.406a1.425,1.425,0,1,0,1.428-2.466L9.632,20.646a30.071,30.071,0,0,1,9.014-9.014l1.406,2.438a1.427,1.427,0,1,0,2.466-1.43L21.112,10.2a29.9,29.9,0,0,1,12.311-3.31V9.716a1.428,1.428,0,0,0,2.856,0V6.9a29.9,29.9,0,0,1,12.311,3.31l-1.406,2.438a1.425,1.425,0,1,0,2.466,1.428l1.406-2.437a30.072,30.072,0,0,1,9.018,9.011l-2.437,1.406a1.427,1.427,0,1,0,1.43,2.466L61.5,23.112a29.812,29.812,0,0,1,3.3,12.311h-2.82a1.428,1.428,0,1,0,0,2.856h2.8a29.735,29.735,0,0,1-3.336,12.434l-2.5-1.473a1.468,1.468,0,0,0-.681-.206h-.139a1.428,1.428,0,0,0-.625,2.672l2.5,1.461c-.312.473-.62.946-.954,1.4a1.43,1.43,0,0,0,2.3,1.7,32.714,32.714,0,0,0,6.343-19.111,1.475,1.475,0,0,0,.006-.568,32.658,32.658,0,0,0-4.273-15.931v-.006a1.471,1.471,0,0,0-.256-.441A33.033,33.033,0,0,0,51.5,8.548L51.5,8.539a1.364,1.364,0,0,0-.463-.262A32.632,32.632,0,0,0,35.119,4.012h-.006A1.633,1.633,0,0,0,34.829,3.984Zm19.7,20.93L38.744,30.888a7.039,7.039,0,0,0-3.894-1.177,7.14,7.14,0,1,0,7.14,7.14c0-.044-.006-.083-.006-.129l12.859-11.3Zm-19.674,7.65A4.256,4.256,0,1,1,31.81,33.81,4.284,4.284,0,0,1,34.851,32.564ZM20.571,55.416a1.427,1.427,0,0,0-1.428,1.428v5.712a1.431,1.431,0,0,0,1.428,1.428H49.135a1.431,1.431,0,0,0,1.428-1.428V56.844a1.427,1.427,0,0,0-1.428-1.428ZM22,58.272H47.7v2.856H22Z" transform="translate(-1.982 -3.984)"/></symbol><symbol id="optimal-protection" viewBox="0 0 52.999 60"><path d="M29.5,0c-2.955,0-5.449,1.633-9.147,3.538A63.525,63.525,0,0,1,3.941,9.448L3,9.674v.941C3,29.068,9.47,41.4,15.949,49.046A42.824,42.824,0,0,0,29.01,59.737l.527.263.527-.263S56,46.336,56,10.615V9.674l-.941-.226a63.522,63.522,0,0,1-16.412-5.91C34.948,1.633,32.454,0,29.5,0Zm0,2.409c1.981,0,4.277,1.332,8.055,3.275a67.826,67.826,0,0,0,15.96,5.834c-.442,32.663-22.5,44.915-24.053,45.734-.748-.362-5.962-2.969-11.706-9.749C11.7,40.356,5.705,28.861,5.484,11.518a67.826,67.826,0,0,0,15.96-5.834C25.222,3.741,27.519,2.409,29.5,2.409Zm9.26,15.207-.64,1.016L28.333,33.839l-6.474-5.834-.866-.79-1.619,1.769.9.828,7.453,6.775,1.054.941.79-1.2L40.152,19.912l.64-1.016Z" transform="translate(-3)"/></symbol><symbol id="optimization" viewBox="0 0 63.179 60"><path d="M64.038,32.3a29.748,29.748,0,0,0-29.7-29.7A30.424,30.424,0,0,0,21,5.733L18.781,2.5,4.638,18.865l20.507-7.071L23.226,8.965A26.3,26.3,0,0,1,34.338,6.44a25.846,25.846,0,0,1,1.919,51.622c-8.789.1-7.476-2.728-7.476-2.728.808-4.445,1.313-12.122-3.233-16.567-6.061-5.96-16.567-3.334-23.538-12.122C.4,24.624-.817,46.949,7.77,56.95c6.364,7.375,14.042,5.556,16.87,4.748C9.992,53.313,7.669,37.15,7.669,37.15S16.66,61.294,34.338,62h1.313A29.766,29.766,0,0,0,64.038,32.3" transform="translate(-0.859 -2.5)"/></symbol><symbol id="quality-control" viewBox="0 0 60 60"><path d="M32,2A30,30,0,1,0,62,32,30,30,0,0,0,32,2Zm0,2.609A27.392,27.392,0,1,1,4.609,32,27.392,27.392,0,0,1,32,4.609ZM30.963,9.826a2.724,2.724,0,0,0-1.7.561,3.4,3.4,0,0,0-1.172,2.349.055.055,0,0,1-.005.025,9.472,9.472,0,0,1-3.241,6.695c-1.62,1.5-3.653,2.568-5.184,4.372a.019.019,0,0,0-.005.016c-1.228,1.477-2.069,3.037-2.828,4.1A5.682,5.682,0,0,1,15.808,29.1a1.15,1.15,0,0,1-.769.29V32a3.9,3.9,0,0,0,2.349-.83,7.591,7.591,0,0,0,1.569-1.712c.9-1.269,1.692-2.721,2.706-3.949a.005.005,0,0,0,.005-.005c1.066-1.254,3.041-2.365,4.954-4.132a12.489,12.489,0,0,0,4.071-8.361v.035c.061-.518.188-.6.188-.6s-.005-.025.183.01a2.938,2.938,0,0,1,1.442,1.085c0,.005.005.01.005.016a5.131,5.131,0,0,1,.245,3.653,21.3,21.3,0,0,1-1.62,4.387l-.016.03a4.114,4.114,0,0,0-.4,2.221A3,3,0,0,0,31.747,25.7a5.727,5.727,0,0,0,3.872,1.085h6.813a3.556,3.556,0,0,1,1.768.367c.275.178.259.209.259.352,0,.723-.219,2.277-.219,2.277a1.291,1.291,0,0,0,.876,1.432,1.706,1.706,0,0,1,1.228,1.59,2.2,2.2,0,0,1-1.162,1.783,1.307,1.307,0,0,0,.122,2.39,1.526,1.526,0,0,1,1.037,1.488,1.665,1.665,0,0,1-.754,1.31,3.764,3.764,0,0,1-.876.535,1.31,1.31,0,0,0-.586,2,2.765,2.765,0,0,1,.448,1.452,1.659,1.659,0,0,1-.066.632c-.061.153-.153.346-.642.642-.973.586-3.572,1.315-9.064,1.315-7.343,0-10.522-.632-12.707-1.254s-3.7-1.355-7.057-1.355v2.609c3.006,0,3.954.571,6.344,1.254S27.3,48.958,34.8,48.958c5.7,0,8.646-.626,10.41-1.692a3.674,3.674,0,0,0,1.971-3.506,4.69,4.69,0,0,0-.377-1.707,2.756,2.756,0,0,0,.422-.25,4.354,4.354,0,0,0,1.729-3.346A3.849,3.849,0,0,0,47.8,35.706,4.289,4.289,0,0,0,48.956,32.8,3.766,3.766,0,0,0,46.9,29.311,10.825,10.825,0,0,0,47.07,27.5a3.11,3.11,0,0,0-1.477-2.553,5.794,5.794,0,0,0-3.159-.778H35.622a4.175,4.175,0,0,1-2.186-.469c-.107-.092-.112-.1-.128-.209a1.69,1.69,0,0,1,.2-.81,22.981,22.981,0,0,0,1.8-4.932,7.546,7.546,0,0,0-.55-5.523,4.715,4.715,0,0,0-3.235-2.354,3.953,3.953,0,0,0-.56-.042Z" transform="translate(-2 -2)"/></symbol><symbol id="reliable-performance" viewBox="0 0 59.995 60"><path d="M24.11,0a1.2,1.2,0,0,0-1.05,1.012L21.9,8.174a20.221,20.221,0,0,0-4.012,1.613L12,5.587a1.2,1.2,0,0,0-1.537.113L5.775,10.389a1.2,1.2,0,0,0-.113,1.531l4.125,5.925A20.279,20.279,0,0,0,8.1,21.9L1.012,23.061A1.2,1.2,0,0,0,0,24.261v6.6A1.2,1.2,0,0,0,.975,32.02l7.162,1.272A20.228,20.228,0,0,0,9.787,37.3L5.587,43.2A1.2,1.2,0,0,0,5.7,44.733l4.689,4.689a1.2,1.2,0,0,0,1.532.11l5.887-4.162a20.281,20.281,0,0,0,4.053,1.65l1.2,7.162a1.2,1.2,0,0,0,1.2,1.012h6.6a1.174,1.174,0,0,0,.338-.075V58.8A1.2,1.2,0,0,0,32.4,60h26.4a1.2,1.2,0,0,0,1.2-1.2V38.212A3.431,3.431,0,0,0,56.585,34.8H46.533c.183-.5.37-1.017.525-1.5l7.124-1.272A1.192,1.192,0,0,0,55.2,30.863v-6.6a1.2,1.2,0,0,0-1.012-1.2l-7.2-1.163a20.719,20.719,0,0,0-1.65-3.974l4.2-6.01a1.2,1.2,0,0,0-.113-1.537L44.731,5.694a1.2,1.2,0,0,0-1.537-.113L37.307,9.818A20.114,20.114,0,0,0,33.3,8.175L32.028.975A1.2,1.2,0,0,0,30.86,0h-6.6A.8.8,0,0,0,24.11,0Zm1.163,2.4h4.575l1.2,6.824a1.2,1.2,0,0,0,.862.938,17.86,17.86,0,0,1,4.912,2.062,1.2,1.2,0,0,0,1.312-.037l5.624-4.053,3.225,3.23-3.974,5.7a1.192,1.192,0,0,0-.075,1.312,17.828,17.828,0,0,1,2.025,4.875,1.192,1.192,0,0,0,.976.9L52.8,25.272v4.575l-6.859,1.2a1.192,1.192,0,0,0-.978.9c-.141.572-.6,1.842-.975,2.85H34.534A9.875,9.875,0,1,0,31.5,36.822a3.35,3.35,0,0,0-.3,1.388v1.163a.8.8,0,0,0,0,.15V46.16L29.846,52.8H25.273L24.148,46.01a1.192,1.192,0,0,0-.9-.975,17.927,17.927,0,0,1-4.95-2.025,1.2,1.2,0,0,0-1.312.037l-5.622,3.936L8.14,43.758l3.974-5.587a1.2,1.2,0,0,0,.037-1.312,17.551,17.551,0,0,1-2.027-4.911,1.192,1.192,0,0,0-.975-.9L2.4,29.847V25.272l6.75-1.125a1.192,1.192,0,0,0,.975-.9,18.033,18.033,0,0,1,2.066-4.95,1.2,1.2,0,0,0-.037-1.312L8.18,11.361l3.258-3.225,5.587,3.974a1.192,1.192,0,0,0,1.312.075A17.714,17.714,0,0,1,23.25,10.16a1.192,1.192,0,0,0,.9-.975ZM27.6,19.986a7.606,7.606,0,1,1-5.384,2.228A7.612,7.612,0,0,1,27.6,19.986Zm7.012,17.207h9.862a1.229,1.229,0,0,0,.715,0h11.4A.991.991,0,0,1,57.6,38.205v.188h-24v-.188a.991.991,0,0,1,1.013-1.012Zm-1.012,3.6h24v16.8h-24V46.308a1.182,1.182,0,0,0,0-.6Zm10.8.715-.862.825-4.012,4.012-1.537-1.312-.9-.788-1.576,1.839.9.75,2.4,2.062.862.75,5.587-5.587.825-.862Zm0,6-.862.825-4.012,4.012-1.537-1.312-.9-.788-1.576,1.839.9.75,2.4,2.062.862.75,5.587-5.587.825-.865Z" transform="translate(0 0.005)"/></symbol><symbol id="remote-monitoring" viewBox="0 0 59.992 60.004">
  <g id="remote-monitoring" transform="translate(1284 806)">
    <path id="remote-monitoring-2" data-name="remote-monitoring" d="M2.4,0A2.416,2.416,0,0,0,0,2.4V44.394a2.416,2.416,0,0,0,2.4,2.4H28.8v6H8.286a1.2,1.2,0,0,0,.112,2.4H51.593a1.2,1.2,0,1,0,0-2.4H31.2v-6h26.4a2.416,2.416,0,0,0,2.4-2.4V2.4a2.416,2.416,0,0,0-2.4-2.4Zm0,2.4H57.592V44.394H30.258a1.122,1.122,0,0,0-.375-.037,1.057,1.057,0,0,0-.113.037H2.4ZM6,3.6A2.416,2.416,0,0,0,3.6,6V36a2.416,2.416,0,0,0,2.4,2.4H53.993a2.416,2.416,0,0,0,2.4-2.4V6a2.416,2.416,0,0,0-2.4-2.4ZM6,6H53.993V36H6Zm34.683,7.162a1.4,1.4,0,0,0-.15.037,1.192,1.192,0,0,0-.937.844,1.205,1.205,0,0,0,.338,1.219L45.069,20.4H33.483a1.2,1.2,0,1,0,.112,2.4H45.069l-5.137,5.137a1.22,1.22,0,1,0,1.725,1.725l7.011-7.049a1.16,1.16,0,0,0,.338-.338l.675-.675-.675-.675a1.147,1.147,0,0,0-.15-.187h-.038a.561.561,0,0,0-.075-.075l-7.086-7.124A1.2,1.2,0,0,0,40.682,13.161ZM19.047,13.2a1.208,1.208,0,0,0-.712.338l-6.9,6.936c-.037.023-.075.047-.112.075a1.212,1.212,0,0,0-.562.562v.037l-.45.45.487.487v.037a1.219,1.219,0,0,0,.45.487c.037.028.075.051.112.075l6.974,6.974a1.22,1.22,0,0,0,1.725-1.725L14.923,22.8H26.4a1.2,1.2,0,1,0,0-2.4H14.923L20.06,15.26A1.2,1.2,0,0,0,19.047,13.2ZM8.061,57.592a1.212,1.212,0,0,0,.337,2.4H51.593a1.2,1.2,0,1,0,0-2.4H8.061Z" transform="translate(-1284 -806)"/>
  </g>
</symbol><symbol id="risk-free" viewBox="0 0 69.869 60"><path d="M34.921,3.039a4.184,4.184,0,0,0-3.682,2.095L1.969,56.612a4.331,4.331,0,0,0,3.688,6.427H64.184a4.336,4.336,0,0,0,3.688-6.432L38.6,5.134A4.184,4.184,0,0,0,34.921,3.039Zm0,2.684a1.458,1.458,0,0,1,1.255.8L65.445,57.993a1.463,1.463,0,0,1-1.26,2.253H5.657A1.463,1.463,0,0,1,4.4,57.993L33.666,6.52A1.458,1.458,0,0,1,34.921,5.723Zm-22.346.038a1.394,1.394,0,0,0-1.091,2.286L17.07,15.03a1.4,1.4,0,1,0,2.182-1.746L13.666,6.3A1.394,1.394,0,0,0,12.575,5.761Zm44.648.005a1.369,1.369,0,0,0-1.047.535l-5.586,6.983a1.4,1.4,0,1,0,2.182,1.746l5.586-6.983a1.411,1.411,0,0,0,.175-1.511A1.391,1.391,0,0,0,57.223,5.767ZM4.146,15.549A1.395,1.395,0,0,0,3.573,18.2l8.38,4.19a1.4,1.4,0,1,0,1.244-2.5L4.817,15.7A1.3,1.3,0,0,0,4.146,15.549Zm61.506,0a1.424,1.424,0,0,0-.633.153l-8.38,4.19a1.4,1.4,0,1,0,1.255,2.5l8.38-4.19a1.4,1.4,0,0,0-.622-2.651ZM33.524,22.537a1.4,1.4,0,0,0-1.4,1.4V43.486a1.391,1.391,0,0,0,1.391,1.4h2.8a1.4,1.4,0,0,0,1.4-1.4V23.934a1.4,1.4,0,0,0-1.4-1.4ZM1.4,28.124a1.4,1.4,0,1,0,0,2.793h8.38a1.4,1.4,0,1,0,0-2.793Zm58.658,0a1.4,1.4,0,1,0,0,2.793h8.38a1.4,1.4,0,1,0,0-2.793ZM33.524,49.073a1.4,1.4,0,0,0-1.4,1.4v2.793a1.4,1.4,0,0,0,1.4,1.4h2.793a1.4,1.4,0,0,0,1.4-1.4V50.469a1.4,1.4,0,0,0-1.4-1.4Z" transform="translate(0.014 -3.039)"/></symbol><symbol id="service-kits" viewBox="0 0 59.826 60"><path d="M46.046-.093c-.355.009-.724.033-1.084.075a18.713,18.713,0,0,0-4.334,1.084A20.6,20.6,0,0,0,33.488,5.4,8.743,8.743,0,0,0,30.8,11.714a12.335,12.335,0,0,0,1.831,5.871L29.9,20.35a1.2,1.2,0,1,0,1.677,1.677l3.367-3.36a1.2,1.2,0,0,0,.149-1.491,10.478,10.478,0,0,1-1.906-5.456,6.209,6.209,0,0,1,1.981-4.634,19.2,19.2,0,0,1,6.316-3.775,14.05,14.05,0,0,1,4.522-.859l-4.52,4.48a.56.56,0,0,0-.037.075,3.562,3.562,0,0,0,.037,4.859l6.353,6.353.037.037a3.562,3.562,0,0,0,4.859-.037L57.258,13.7a13.9,13.9,0,0,1-.859,4.56,19.024,19.024,0,0,1-3.775,6.279,6.029,6.029,0,0,1-4.6,1.906,11.529,11.529,0,0,1-5.569-1.868A1.2,1.2,0,0,0,41,24.759l-1.906,1.906a1.2,1.2,0,0,0,1.677,1.719l1.347-1.345a13.008,13.008,0,0,0,5.871,1.794,8.635,8.635,0,0,0,6.316-2.616,20.578,20.578,0,0,0,4.335-7.1c1.056-2.826,1.611-5.891.745-8.48a1.195,1.195,0,0,0-1.981-.448L51.051,16.5a1.217,1.217,0,0,1-1.532,0c-.023-.019-.051-.019-.075-.037l-6.279-6.279a1.227,1.227,0,0,1,.075-1.607L49.52,2.3A1.195,1.195,0,0,0,49.072.318,8.471,8.471,0,0,0,46.046-.093ZM4.006.019a1.2,1.2,0,0,0-.673.336L.339,3.348A1.2,1.2,0,0,0,.153,4.805L5.2,13.551a1.2,1.2,0,0,0,1.2.559L9.009,13.7l16.22,16.218-.6.6a3.381,3.381,0,0,0,0,4.783l.822.859a3.233,3.233,0,0,0,3.439.559L30.91,38.7A5.449,5.449,0,0,0,32.4,43.07L46.979,57.684a7.556,7.556,0,0,0,10.688,0v-.037a7.694,7.694,0,0,0,0-10.651L43.055,32.422a5.575,5.575,0,0,0-4.372-1.491L36.7,28.912a3.233,3.233,0,0,0-.559-3.439l-.859-.822a3.339,3.339,0,0,0-4.783,0l-.6.6L13.681,9.026l.411-2.616a1.2,1.2,0,0,0-.559-1.2L4.787.168A1.17,1.17,0,0,0,4.114.019ZM4.417,2.71l7.213,4.149-.373,2.429a1.211,1.211,0,0,0,.336,1.009L28.218,26.924l-1.3,1.3L10.28,11.6a1.211,1.211,0,0,0-1.009-.335l-2.429.373L2.694,4.429ZM32.893,26.067a1,1,0,0,1,.71.262l.822.859a.992.992,0,0,1,.075,1.346,1.2,1.2,0,0,0,.075,1.645L37.3,32.907a1.194,1.194,0,0,0,1.046.336,3.48,3.48,0,0,1,3.024.855L55.948,48.715a5.292,5.292,0,0,1,0,7.25,5.01,5.01,0,0,1-7.25,0L34.086,41.39a3.111,3.111,0,0,1-.859-2.915,1.191,1.191,0,0,0-.336-1.158l-2.728-2.728a1.2,1.2,0,0,0-1.645-.075.992.992,0,0,1-1.346-.075l-.859-.822a1.08,1.08,0,0,1,0-1.42l5.871-5.871a1,1,0,0,1,.71-.259ZM21.152,29.655a1.2,1.2,0,0,0-.71.373l-5.684,5.684a12.642,12.642,0,0,0-2.429-.3,12.2,12.2,0,1,0,12.19,12.218,10.5,10.5,0,0,0-.411-2.578l4.111-4.111a1.2,1.2,0,1,0-1.677-1.719l-4.522,4.56a1.2,1.2,0,0,0-.3,1.271,7.034,7.034,0,0,1,.411,2.578,9.8,9.8,0,1,1-9.8-9.83,10.678,10.678,0,0,1,2.578.337,1.2,1.2,0,0,0,1.118-.336l6.092-6.092a1.2,1.2,0,0,0-.859-2.056Zm16.784,6.578-1.719,1.719L50.567,52.3l1.719-1.719ZM13.6,40.68a1.187,1.187,0,0,0-.186.037l-5.6,1.57a1.194,1.194,0,0,0-.822.822l-1.57,5.606a1.193,1.193,0,0,0,.3,1.2L9.906,54.1a1.192,1.192,0,0,0,1.158.3l5.755-1.566a1.2,1.2,0,0,0,.859-.859L19.1,46.36a1.192,1.192,0,0,0-.3-1.158l-4.186-4.186A1.211,1.211,0,0,0,13.6,40.68Zm-.225,2.541,3.214,3.214-1.081,4.3L11.14,51.891,7.925,48.677l1.159-4.3Z" transform="translate(0.014 0.102)"/></symbol><symbol id="specifically-designed" viewBox="0 0 62.5 60"><path d="M2.5,2A2.518,2.518,0,0,0,0,4.5v45A2.518,2.518,0,0,0,2.5,52H23.75v2.5H18.594A3.688,3.688,0,0,0,15,58.25V62H47.5V58.249a3.688,3.688,0,0,0-3.6-3.75H38.75V52H60a2.518,2.518,0,0,0,2.5-2.5V4.5A2.518,2.518,0,0,0,60,2Zm0,2.5H60v45H37.734a1.272,1.272,0,0,0-.508,0H25.234a1.272,1.272,0,0,0-.508,0H2.5ZM7.5,7A2.518,2.518,0,0,0,5,9.5v30A2.518,2.518,0,0,0,7.5,42H55a2.518,2.518,0,0,0,2.5-2.5V9.5A2.518,2.518,0,0,0,55,7Zm0,2.5H55v30H7.5Zm33.554,6.992-.782.977L30.117,30.438,22.07,23.332l-.934-.863L19.5,24.344l.937.859,8.984,7.969,1.015.9.82-1.055L42.226,19.032l.782-.977Zm12.7,26.758a2.5,2.5,0,1,0,1.769.731,2.5,2.5,0,0,0-1.769-.731ZM26.25,52h10v2.5h-10Zm-7.656,5H43.906A1.169,1.169,0,0,1,45,58.249V59.5H17.5v-1.25A1.169,1.169,0,0,1,18.594,57Z" transform="translate(0 -2)"/></symbol><symbol id="time-saving" viewBox="0 0 60 60"><path d="M30.7,2V13.739a1.3,1.3,0,1,0,2.609,0v-9a27.238,27.238,0,1,1-21.343,8.585,1.305,1.305,0,1,0-1.911-1.778A30,30,0,1,0,32,2ZM17.652,17.652S27.7,33.238,29.233,34.767a3.913,3.913,0,0,0,5.533-5.533C33.238,27.7,17.652,17.652,17.652,17.652Z" transform="translate(-2 -2)"/></symbol><symbol id="timely-maintenance" viewBox="0 0 60 60"><path d="M30.75,2a28.75,28.75,0,1,0,5.332,57,16.038,16.038,0,0,1-1.68-2.28A26.466,26.466,0,1,1,56.717,34.4,16.038,16.038,0,0,1,59,36.082,28.73,28.73,0,0,0,30.75,2Zm-.02,6.23A1.256,1.256,0,0,0,29.5,9.5V27.22a3.753,3.753,0,0,0-2.129,5.146l-7.5,7.5a1.25,1.25,0,1,0,1.768,1.768l7.5-7.5A3.75,3.75,0,1,0,32,27.215V9.5a1.251,1.251,0,0,0-1.27-1.27ZM45.75,34.5,45,38.5a5.258,5.258,0,0,0-1.25.5l-3.379-2.373-3.75,3.75L38.875,43.5c-.127.5-.376.879-.5,1.377L34.5,45.5V50.75l3.872.625a5.359,5.359,0,0,0,.5,1.25L36.624,56l3.75,3.75L43.753,57.5a6.208,6.208,0,0,0,1.372.5l.625,4h5.122l.752-3.872a8.873,8.873,0,0,0,1.25-.5l3.379,2.251L60,56.126l-2.378-3.252a9.787,9.787,0,0,0,.5-1.377L62,50.75V45.5l-4-.625a5.338,5.338,0,0,0-.5-1.25l2.246-3.379-3.623-3.623L52.874,39a5.338,5.338,0,0,0-1.25-.5L51,34.5ZM47.874,37h1l.5,3.374.747.254a10.928,10.928,0,0,1,2.124.869L53,42l2.871-2.124.625.625-2,2.871.376.625a16.492,16.492,0,0,1,.874,2.256L56,47l3.5.5v1l-3.374.752L55.872,50A11.009,11.009,0,0,1,55,52.122l-.5.752,2.124,2.876-.752.747L53,54.5l-.625.376a16.436,16.436,0,0,1-2.251.874L49.378,56l-.625,3.5H47.747l-.5-3.374-.752-.254A11.009,11.009,0,0,1,44.378,55l-.752-.5-3,2-.752-.747,2-2.876-.381-.625c-.371-.752-.62-1.621-.869-2.246l-.254-.752L37,48.626v-1L40.5,47l.127-.874a6.438,6.438,0,0,1,.747-2l.5-.625-2-2.871.752-.752,2.871,2,.625-.254c.874-.376,1.626-.747,2.373-1l.752-.127Zm.376,6.128a5,5,0,0,0,0,10,4.939,4.939,0,0,0,5-5A5.013,5.013,0,0,0,48.25,43.128Zm0,2.622a2.43,2.43,0,0,1,2.5,2.5,2.5,2.5,0,1,1-2.5-2.5Z" transform="translate(-2 -2)"/></symbol><symbol id="uptime" viewBox="0 0 56.024 60"><path d="M29.752,62.1A27.972,27.972,0,0,1,21.92,7.281a1.909,1.909,0,0,1,2.289,1.2A1.909,1.909,0,0,1,23,10.775,24.333,24.333,0,1,0,54.089,34.148a24.545,24.545,0,0,0-17.47-23.373,1.761,1.761,0,0,1-1.2-2.289,1.761,1.761,0,0,1,2.289-1.2A27.972,27.972,0,0,1,29.752,62.1Zm0-30.241a1.853,1.853,0,0,1-1.807-1.807V3.907a1.807,1.807,0,1,1,3.614,0V30.052A1.853,1.853,0,0,1,29.752,31.859Z" transform="translate(-1.8 -2.1)"/></symbol></svg>